<svg id="svg" xmlns="http://www.w3.org/2000/svg" xmlns:xlink="http://www.w3.org/1999/xlink" width="400" height="225" viewBox="0, 0, 400,225"><g id="svgg"><path id="path0" d="M312.631 0.573 C 312.468 0.888,311.997 1.647,311.584 2.261 C 311.171 2.874,310.833 3.476,310.833 3.599 C 310.833 3.723,310.519 4.299,310.134 4.881 C 307.538 8.804,306.668 10.192,306.403 10.833 C 306.238 11.234,305.781 11.984,305.389 12.500 C 304.997 13.016,303.847 14.703,302.833 16.250 C 300.621 19.625,300.817 19.339,299.271 21.423 C 298.583 22.349,297.386 24.025,296.611 25.147 C 295.836 26.269,294.733 27.750,294.160 28.438 C 293.185 29.609,292.754 30.188,290.910 32.813 C 290.508 33.385,289.913 34.135,289.589 34.479 C 289.265 34.823,288.826 35.395,288.614 35.751 C 288.402 36.107,287.929 36.650,287.563 36.958 C 287.198 37.266,286.688 37.865,286.431 38.290 C 286.174 38.715,285.419 39.652,284.753 40.372 C 284.087 41.093,283.542 41.781,283.542 41.903 C 283.542 42.024,282.952 42.748,282.230 43.510 C 281.509 44.272,280.643 45.271,280.305 45.729 C 279.967 46.187,278.864 47.359,277.853 48.333 C 276.842 49.307,275.820 50.432,275.582 50.833 C 275.022 51.778,260.040 66.856,258.554 67.971 C 257.930 68.439,256.505 69.673,255.386 70.713 C 251.657 74.179,250.418 75.259,249.524 75.826 C 249.037 76.135,248.369 76.709,248.041 77.100 C 247.713 77.492,247.003 78.141,246.464 78.542 C 243.639 80.643,242.359 81.647,242.089 81.973 C 241.924 82.171,241.316 82.653,240.738 83.044 C 240.160 83.434,239.219 84.133,238.646 84.598 C 238.073 85.062,237.135 85.768,236.563 86.165 C 235.990 86.562,235.066 87.205,234.510 87.592 C 233.954 87.979,233.251 88.530,232.947 88.816 C 232.644 89.102,231.458 89.918,230.313 90.631 C 229.167 91.343,227.948 92.185,227.604 92.503 C 226.932 93.123,222.920 95.846,219.932 97.708 C 218.921 98.339,217.222 99.417,216.157 100.104 C 214.306 101.298,213.255 101.920,210.974 103.166 C 210.408 103.476,209.746 103.916,209.502 104.145 C 209.258 104.375,208.497 104.809,207.810 105.112 C 207.124 105.414,206.257 105.893,205.883 106.177 C 205.509 106.460,204.665 106.929,204.008 107.220 C 203.350 107.510,202.203 108.146,201.458 108.632 C 199.822 109.701,185.864 116.713,183.958 117.423 C 183.214 117.701,181.760 118.344,180.729 118.852 C 178.409 119.994,176.728 120.743,175.104 121.359 C 174.417 121.619,172.823 122.273,171.563 122.811 C 170.302 123.350,168.596 124.007,167.771 124.272 C 166.947 124.536,165.916 124.944,165.480 125.178 C 165.044 125.412,163.891 125.850,162.917 126.150 C 161.943 126.450,160.771 126.841,160.313 127.019 C 158.490 127.724,150.421 130.480,148.854 130.933 C 147.938 131.197,145.500 131.900,143.438 132.495 C 141.375 133.089,138.938 133.744,138.021 133.949 C 137.104 134.155,134.807 134.744,132.917 135.260 C 131.026 135.775,128.776 136.346,127.917 136.528 C 126.369 136.856,122.165 137.768,120.481 138.140 C 120.000 138.246,119.250 138.333,118.813 138.333 C 118.376 138.333,117.691 138.429,117.290 138.546 C 115.961 138.934,113.656 139.375,112.951 139.375 C 112.569 139.375,111.678 139.510,110.972 139.675 C 107.938 140.383,107.076 140.505,105.104 140.505 C 103.133 140.505,102.271 140.383,99.237 139.675 C 98.530 139.510,97.640 139.375,97.257 139.375 C 96.553 139.375,94.247 138.934,92.918 138.546 C 92.518 138.429,91.833 138.333,91.396 138.333 C 90.959 138.333,90.208 138.246,89.728 138.140 C 87.837 137.722,83.774 136.843,82.292 136.531 C 81.432 136.350,79.417 135.845,77.813 135.408 C 76.208 134.971,73.865 134.365,72.604 134.061 C 70.599 133.577,68.385 132.962,61.354 130.933 C 59.787 130.480,51.719 127.724,49.896 127.019 C 49.438 126.841,48.266 126.451,47.292 126.152 C 46.318 125.853,45.260 125.465,44.942 125.289 C 44.624 125.113,43.593 124.703,42.651 124.376 C 41.708 124.049,39.906 123.343,38.646 122.807 C 37.385 122.271,35.792 121.622,35.104 121.364 C 34.417 121.106,33.432 120.701,32.917 120.464 C 27.632 118.037,26.464 117.511,25.833 117.272 C 24.680 116.836,9.727 109.346,9.332 109.007 C 9.029 108.747,6.898 107.580,2.917 105.494 C 2.401 105.224,1.534 104.943,0.990 104.869 L 0.000 104.735 0.000 164.868 L 0.000 225.000 106.863 225.000 C 177.880 225.000,213.769 224.930,213.854 224.792 C 213.925 224.677,214.402 224.583,214.915 224.583 C 215.551 224.583,215.884 224.484,215.966 224.271 C 216.050 224.052,216.392 223.958,217.106 223.958 C 217.666 223.958,218.125 223.865,218.125 223.750 C 218.125 223.635,218.492 223.542,218.941 223.542 C 219.917 223.542,220.417 223.375,220.417 223.049 C 220.417 222.893,220.743 222.835,221.353 222.884 C 222.066 222.941,222.319 222.879,222.417 222.625 C 222.510 222.382,222.822 222.292,223.570 222.292 C 224.290 222.292,224.632 222.198,224.716 221.979 C 224.790 221.788,225.106 221.667,225.531 221.667 C 225.913 221.667,226.283 221.573,226.354 221.458 C 226.425 221.344,226.902 221.250,227.415 221.250 C 228.051 221.250,228.384 221.151,228.466 220.938 C 228.545 220.734,228.869 220.625,229.397 220.625 C 229.843 220.625,230.208 220.531,230.208 220.417 C 230.208 220.302,230.539 220.208,230.944 220.208 C 231.406 220.208,231.724 220.092,231.800 219.896 C 231.884 219.677,232.225 219.583,232.939 219.583 C 233.500 219.583,233.958 219.490,233.958 219.375 C 233.958 219.260,234.289 219.167,234.694 219.167 C 235.156 219.167,235.474 219.050,235.550 218.854 C 235.624 218.661,235.941 218.542,236.383 218.542 C 236.782 218.542,237.143 218.420,237.202 218.266 C 237.268 218.095,237.534 218.024,237.906 218.079 C 238.343 218.143,238.563 218.058,238.720 217.764 C 238.878 217.470,239.098 217.384,239.532 217.448 C 239.909 217.503,240.228 217.414,240.402 217.205 C 240.553 217.024,240.949 216.875,241.282 216.875 C 241.629 216.875,241.939 216.741,242.008 216.563 C 242.086 216.359,242.410 216.250,242.939 216.250 C 243.385 216.250,243.750 216.156,243.750 216.042 C 243.750 215.927,243.940 215.833,244.173 215.833 C 244.406 215.833,244.650 215.693,244.716 215.521 C 244.795 215.317,245.119 215.208,245.647 215.208 C 246.093 215.208,246.458 215.115,246.458 215.000 C 246.458 214.885,246.789 214.792,247.194 214.792 C 247.656 214.792,247.974 214.675,248.050 214.479 C 248.124 214.286,248.440 214.167,248.876 214.167 C 249.265 214.167,249.583 214.073,249.583 213.958 C 249.583 213.844,249.821 213.750,250.111 213.750 C 250.401 213.750,250.692 213.609,250.758 213.438 C 250.832 213.244,251.149 213.125,251.591 213.125 C 251.999 213.125,252.351 213.004,252.413 212.843 C 252.478 212.675,252.719 212.600,253.015 212.656 C 253.344 212.719,253.635 212.604,253.884 212.313 C 254.091 212.072,254.420 211.875,254.617 211.875 C 254.814 211.875,255.033 211.781,255.104 211.667 C 255.175 211.552,255.558 211.458,255.956 211.458 C 256.407 211.458,256.725 211.341,256.800 211.146 C 256.866 210.974,257.144 210.833,257.418 210.833 C 257.692 210.833,257.917 210.740,257.917 210.625 C 257.917 210.510,258.107 210.417,258.340 210.417 C 258.573 210.417,258.817 210.276,258.883 210.104 C 258.956 209.913,259.272 209.792,259.697 209.792 C 260.080 209.792,260.450 209.698,260.521 209.583 C 260.592 209.469,260.834 209.375,261.061 209.375 C 261.287 209.375,261.525 209.234,261.591 209.063 C 261.657 208.891,261.936 208.750,262.210 208.750 C 262.484 208.750,262.708 208.656,262.708 208.542 C 262.708 208.427,262.983 208.333,263.318 208.333 C 263.654 208.333,264.069 208.193,264.241 208.021 C 264.413 207.849,264.738 207.708,264.963 207.708 C 265.188 207.708,265.428 207.562,265.497 207.383 C 265.566 207.203,265.713 207.113,265.824 207.182 C 265.935 207.251,266.217 207.116,266.451 206.883 C 266.684 206.649,267.063 206.458,267.292 206.458 C 267.521 206.458,267.708 206.365,267.708 206.250 C 267.708 206.135,267.993 206.042,268.340 206.042 C 268.709 206.042,269.021 205.912,269.091 205.729 C 269.157 205.557,269.430 205.417,269.697 205.417 C 269.965 205.417,270.242 205.323,270.313 205.208 C 270.383 205.094,270.626 205.000,270.852 205.000 C 271.078 205.000,271.317 204.859,271.383 204.688 C 271.449 204.516,271.727 204.375,272.001 204.375 C 272.276 204.375,272.500 204.281,272.500 204.167 C 272.500 204.052,272.690 203.958,272.923 203.958 C 273.156 203.958,273.400 203.818,273.466 203.646 C 273.532 203.474,273.811 203.333,274.085 203.333 C 274.359 203.333,274.583 203.240,274.583 203.125 C 274.583 203.010,274.764 202.917,274.985 202.917 C 275.206 202.917,275.528 202.776,275.699 202.604 C 275.871 202.432,276.148 202.292,276.314 202.292 C 276.480 202.292,276.732 202.151,276.875 201.979 C 277.018 201.807,277.310 201.667,277.526 201.667 C 277.741 201.667,277.917 201.526,277.917 201.354 C 277.917 201.182,278.073 201.042,278.263 201.042 C 278.731 201.042,280.208 200.378,280.208 200.168 C 280.208 200.076,280.317 200.000,280.451 200.000 C 280.840 200.000,282.292 199.311,282.292 199.127 C 282.292 199.034,282.503 198.951,282.760 198.943 C 283.018 198.935,283.510 198.748,283.854 198.529 C 284.198 198.309,284.620 198.070,284.792 197.998 C 286.277 197.370,286.657 197.153,286.661 196.927 C 286.664 196.784,286.807 196.667,286.979 196.667 C 287.151 196.667,287.292 196.573,287.292 196.458 C 287.292 196.344,287.482 196.250,287.715 196.250 C 287.948 196.250,288.192 196.109,288.258 195.938 C 288.324 195.766,288.602 195.625,288.876 195.625 C 289.176 195.625,289.375 195.503,289.375 195.319 C 289.375 195.145,289.499 195.061,289.661 195.123 C 289.818 195.183,290.092 195.086,290.271 194.908 C 290.449 194.729,290.747 194.583,290.933 194.583 C 291.118 194.583,291.487 194.349,291.753 194.063 C 292.018 193.776,292.428 193.542,292.663 193.542 C 292.898 193.542,293.122 193.471,293.160 193.385 C 293.254 193.172,294.556 192.500,294.874 192.500 C 295.015 192.500,295.336 192.222,295.587 191.882 C 295.869 191.500,296.162 191.309,296.354 191.383 C 296.530 191.450,296.718 191.358,296.791 191.167 C 296.862 190.984,297.125 190.833,297.376 190.833 C 297.627 190.833,298.062 190.557,298.343 190.217 C 298.624 189.878,299.065 189.597,299.323 189.592 C 299.581 189.587,299.792 189.490,299.792 189.375 C 299.792 189.260,299.966 189.167,300.179 189.167 C 300.392 189.167,300.743 188.932,300.958 188.646 C 301.173 188.359,301.519 188.125,301.726 188.125 C 301.934 188.125,302.320 187.891,302.586 187.604 C 302.851 187.318,303.259 187.083,303.491 187.083 C 303.724 187.083,303.968 186.943,304.034 186.771 C 304.100 186.599,304.331 186.458,304.548 186.458 C 304.764 186.458,305.118 186.224,305.333 185.938 C 305.548 185.651,305.866 185.414,306.039 185.411 C 306.212 185.408,306.628 185.126,306.962 184.786 C 307.296 184.445,307.735 184.167,307.936 184.167 C 308.138 184.167,308.487 183.932,308.713 183.646 C 308.938 183.359,309.286 183.125,309.485 183.125 C 309.685 183.125,310.065 182.891,310.331 182.604 C 310.596 182.318,310.990 182.083,311.205 182.083 C 311.420 182.083,311.722 181.849,311.875 181.563 C 312.031 181.270,312.339 181.042,312.575 181.042 C 312.807 181.042,313.346 180.667,313.774 180.208 C 314.201 179.750,314.746 179.375,314.984 179.375 C 315.230 179.375,315.417 179.240,315.417 179.063 C 315.417 178.891,315.557 178.750,315.729 178.750 C 315.901 178.750,316.042 178.656,316.042 178.542 C 316.042 178.427,316.216 178.333,316.429 178.333 C 316.642 178.333,316.993 178.099,317.208 177.812 C 317.423 177.526,317.782 177.292,318.006 177.292 C 318.230 177.292,318.763 176.917,319.190 176.458 C 319.618 176.000,320.162 175.625,320.400 175.625 C 320.639 175.625,320.833 175.534,320.833 175.424 C 320.833 175.097,322.042 173.958,322.389 173.958 C 322.565 173.958,323.083 173.583,323.542 173.125 C 324.000 172.667,324.528 172.292,324.715 172.292 C 324.902 172.292,325.364 171.964,325.743 171.563 C 326.121 171.161,326.538 170.833,326.671 170.833 C 326.803 170.833,327.406 170.318,328.012 169.688 C 328.617 169.057,329.280 168.542,329.483 168.542 C 329.687 168.542,330.303 168.073,330.853 167.500 C 331.417 166.911,332.038 166.458,332.280 166.458 C 332.516 166.458,332.708 166.382,332.708 166.289 C 332.708 165.977,335.227 163.542,335.550 163.542 C 335.725 163.542,336.565 162.839,337.416 161.979 C 338.267 161.120,339.096 160.417,339.258 160.417 C 339.420 160.417,340.630 159.339,341.948 158.021 C 343.266 156.703,344.461 155.625,344.604 155.625 C 344.988 155.625,363.333 137.173,363.333 136.787 C 363.333 136.606,363.427 136.458,363.542 136.458 C 363.656 136.458,363.750 136.318,363.750 136.146 C 363.750 135.974,363.850 135.833,363.973 135.833 C 364.262 135.833,364.792 135.303,364.792 135.015 C 364.792 134.892,364.875 134.792,364.977 134.792 C 365.228 134.792,367.083 132.948,367.083 132.699 C 367.083 132.589,367.184 132.500,367.307 132.500 C 367.635 132.500,368.125 131.953,368.125 131.586 C 368.125 131.411,368.875 130.510,369.792 129.583 C 370.708 128.657,371.458 127.769,371.458 127.611 C 371.458 127.346,372.609 126.042,372.843 126.042 C 373.035 126.042,373.542 125.448,373.542 125.223 C 373.542 125.100,373.682 125.000,373.854 125.000 C 374.035 125.000,374.167 124.811,374.167 124.552 C 374.167 124.282,374.623 123.662,375.313 122.994 C 375.943 122.384,376.458 121.754,376.458 121.594 C 376.458 121.434,376.925 120.846,377.495 120.287 C 378.065 119.728,378.533 119.141,378.536 118.982 C 378.539 118.823,378.776 118.476,379.063 118.211 C 379.349 117.945,379.583 117.640,379.583 117.532 C 379.583 117.424,379.728 117.281,379.906 117.213 C 380.083 117.145,380.200 116.959,380.166 116.800 C 380.132 116.641,380.503 116.136,380.990 115.676 C 381.477 115.216,381.875 114.723,381.875 114.580 C 381.875 114.437,382.213 114.001,382.627 113.611 C 383.056 113.206,383.391 112.682,383.408 112.389 C 383.424 112.106,383.515 111.875,383.609 111.875 C 383.855 111.875,384.375 111.319,384.375 111.057 C 384.375 110.934,384.516 110.833,384.688 110.833 C 384.863 110.833,385.000 110.647,385.000 110.410 C 385.000 110.177,385.286 109.706,385.635 109.365 C 385.985 109.023,386.213 108.651,386.143 108.537 C 386.073 108.423,386.161 108.274,386.340 108.206 C 386.518 108.137,386.617 108.004,386.558 107.910 C 386.500 107.816,386.641 107.678,386.872 107.605 C 387.103 107.532,387.292 107.291,387.292 107.069 C 387.292 106.848,387.667 106.292,388.125 105.833 C 388.583 105.375,388.958 104.902,388.958 104.782 C 388.958 104.662,389.193 104.330,389.479 104.044 C 389.766 103.757,390.000 103.419,390.000 103.291 C 390.000 103.164,390.234 102.753,390.521 102.377 C 390.807 102.002,391.042 101.591,391.042 101.465 C 391.042 101.339,391.328 100.956,391.677 100.615 C 392.026 100.273,392.263 99.915,392.204 99.818 C 392.144 99.721,392.374 99.394,392.714 99.090 C 393.055 98.787,393.333 98.408,393.333 98.249 C 393.333 98.090,393.566 97.740,393.851 97.470 C 394.135 97.200,394.369 96.821,394.371 96.627 C 394.373 96.433,394.469 96.217,394.583 96.146 C 394.698 96.075,394.792 95.835,394.792 95.613 C 394.792 95.390,394.885 95.208,395.000 95.208 C 395.115 95.208,395.208 95.068,395.208 94.896 C 395.208 94.724,395.349 94.583,395.521 94.583 C 395.705 94.583,395.834 94.392,395.835 94.115 C 395.836 93.844,396.101 93.438,396.460 93.154 C 396.803 92.883,397.083 92.525,397.083 92.358 C 397.083 92.190,397.224 91.913,397.396 91.741 C 397.568 91.569,397.708 91.250,397.708 91.032 C 397.708 90.813,397.943 90.481,398.229 90.293 C 398.516 90.106,398.750 89.775,398.750 89.559 C 398.750 89.343,398.844 89.167,398.958 89.167 C 399.073 89.167,399.167 88.975,399.167 88.741 C 399.167 88.507,399.354 88.115,399.583 87.869 C 399.997 87.424,400.000 87.133,400.000 43.711 L 400.000 0.000 356.464 -0.000 L 312.927 -0.000 312.631 0.573 " stroke="none" fill="#000000" fill-rule="evenodd"></path></g></svg>