<svg id="svg" xmlns="http://www.w3.org/2000/svg" xmlns:xlink="http://www.w3.org/1999/xlink" width="400" height="270.8333333333333" viewBox="0, 0, 400,270.8333333333333"><g id="svgg"><path id="path0" d="M0.052 55.260 L 0.104 110.104 0.625 110.175 C 0.911 110.214,1.298 110.382,1.485 110.549 C 1.671 110.715,2.163 110.906,2.578 110.974 C 2.994 111.041,3.333 111.173,3.333 111.268 C 3.333 111.362,3.655 111.500,4.048 111.574 C 4.441 111.647,4.808 111.826,4.864 111.970 C 4.919 112.115,5.347 112.294,5.815 112.369 C 6.284 112.444,6.667 112.596,6.667 112.708 C 6.667 112.820,7.040 112.971,7.496 113.044 C 7.952 113.117,8.432 113.306,8.563 113.463 C 8.694 113.621,9.012 113.750,9.271 113.750 C 9.529 113.750,9.857 113.891,10.000 114.063 C 10.143 114.234,10.561 114.375,10.931 114.375 C 11.338 114.375,11.751 114.539,11.979 114.792 C 12.192 115.027,12.621 115.208,12.964 115.208 C 13.298 115.208,13.712 115.349,13.884 115.521 C 14.056 115.693,14.466 115.833,14.796 115.833 C 15.126 115.833,15.478 115.981,15.579 116.161 C 15.682 116.345,16.165 116.541,16.683 116.608 C 17.190 116.674,17.679 116.855,17.771 117.010 C 17.865 117.169,18.286 117.292,18.738 117.292 C 19.232 117.292,19.582 117.403,19.651 117.583 C 19.712 117.744,20.168 117.943,20.663 118.026 C 21.158 118.109,21.747 118.306,21.973 118.464 C 22.199 118.621,22.728 118.750,23.149 118.750 C 23.637 118.750,23.957 118.863,24.034 119.063 C 24.110 119.262,24.431 119.375,24.917 119.375 C 25.337 119.375,25.972 119.546,26.330 119.756 C 26.687 119.965,27.354 120.159,27.813 120.186 C 28.271 120.214,28.750 120.371,28.877 120.535 C 29.023 120.724,29.493 120.833,30.154 120.833 C 30.791 120.833,31.293 120.946,31.439 121.123 C 31.571 121.282,32.207 121.478,32.853 121.559 C 33.498 121.639,34.159 121.837,34.320 121.998 C 34.497 122.176,35.044 122.292,35.702 122.292 C 36.301 122.292,36.901 122.401,37.034 122.534 C 37.167 122.667,37.809 122.848,38.461 122.937 C 39.113 123.025,39.710 123.202,39.789 123.329 C 39.868 123.456,40.627 123.617,41.476 123.686 C 42.439 123.764,43.084 123.918,43.187 124.093 C 43.297 124.279,43.771 124.375,44.579 124.375 C 45.390 124.375,45.909 124.481,46.116 124.688 C 46.337 124.908,46.876 125.000,47.957 125.000 C 49.087 125.000,49.688 125.109,50.263 125.417 C 50.839 125.725,51.438 125.833,52.578 125.833 C 53.691 125.833,54.187 125.920,54.375 126.146 C 54.575 126.387,55.128 126.458,56.786 126.458 C 58.542 126.458,58.972 126.520,59.124 126.792 C 59.271 127.053,59.799 127.149,61.582 127.238 C 62.892 127.303,63.917 127.449,64.002 127.582 C 64.099 127.732,65.412 127.834,67.752 127.874 C 70.855 127.927,71.392 127.985,71.624 128.291 C 72.046 128.847,104.922 128.838,105.233 128.281 C 105.414 127.958,105.813 127.917,108.781 127.917 C 111.217 127.917,112.303 127.837,112.781 127.622 C 113.142 127.459,114.353 127.285,115.473 127.234 C 116.966 127.166,117.608 127.050,117.885 126.800 C 118.179 126.534,118.701 126.458,120.251 126.458 C 121.765 126.458,122.303 126.384,122.500 126.146 C 122.688 125.920,123.184 125.833,124.297 125.833 C 125.437 125.833,126.036 125.725,126.612 125.417 C 127.187 125.109,127.788 125.000,128.918 125.000 C 129.999 125.000,130.538 124.908,130.759 124.687 C 130.966 124.481,131.485 124.375,132.296 124.375 C 133.108 124.375,133.577 124.280,133.688 124.092 C 133.791 123.917,134.401 123.766,135.287 123.697 C 136.075 123.636,136.782 123.484,136.858 123.360 C 136.935 123.237,137.648 123.043,138.444 122.931 C 139.239 122.818,139.923 122.628,139.962 122.509 C 140.002 122.389,140.472 122.291,141.007 122.290 C 141.542 122.290,142.243 122.151,142.565 121.983 C 142.888 121.815,143.613 121.616,144.176 121.542 C 144.740 121.467,145.308 121.277,145.439 121.119 C 145.582 120.946,146.089 120.833,146.721 120.833 C 147.382 120.833,147.852 120.724,147.998 120.535 C 148.125 120.371,148.604 120.214,149.063 120.186 C 149.521 120.159,150.188 119.965,150.545 119.756 C 150.903 119.546,151.538 119.375,151.958 119.375 C 152.444 119.375,152.765 119.262,152.841 119.063 C 152.913 118.877,153.227 118.749,153.616 118.749 C 153.976 118.748,154.521 118.617,154.827 118.457 C 155.132 118.298,155.772 118.102,156.247 118.021 C 156.723 117.941,157.163 117.744,157.224 117.583 C 157.293 117.404,157.642 117.292,158.132 117.292 C 158.570 117.292,159.053 117.167,159.206 117.015 C 159.358 116.862,159.834 116.680,160.264 116.611 C 160.694 116.541,161.192 116.337,161.371 116.159 C 161.550 115.980,161.917 115.833,162.188 115.833 C 162.458 115.833,162.819 115.693,162.991 115.521 C 163.163 115.349,163.577 115.208,163.911 115.208 C 164.254 115.208,164.683 115.027,164.896 114.792 C 165.124 114.539,165.537 114.375,165.944 114.375 C 166.314 114.375,166.732 114.234,166.875 114.063 C 167.018 113.891,167.394 113.750,167.712 113.750 C 168.029 113.750,168.338 113.623,168.397 113.467 C 168.457 113.311,168.877 113.125,169.330 113.052 C 169.783 112.980,170.272 112.779,170.415 112.606 C 170.559 112.433,170.934 112.292,171.250 112.292 C 171.566 112.292,171.936 112.157,172.072 111.993 C 172.209 111.828,172.595 111.633,172.931 111.559 C 173.267 111.486,173.542 111.350,173.542 111.257 C 173.542 111.165,173.955 111.027,174.461 110.951 C 174.967 110.875,175.432 110.678,175.496 110.511 C 175.560 110.344,175.843 110.208,176.124 110.208 C 176.406 110.208,176.778 110.068,176.949 109.896 C 177.121 109.724,177.409 109.583,177.589 109.583 C 177.769 109.583,178.104 109.396,178.333 109.167 C 178.567 108.933,179.028 108.750,179.382 108.750 C 179.731 108.750,180.063 108.620,180.125 108.458 C 180.187 108.297,180.549 108.107,180.931 108.036 C 181.313 107.964,181.739 107.767,181.880 107.599 C 182.020 107.430,182.346 107.292,182.604 107.292 C 182.863 107.292,183.191 107.151,183.333 106.979 C 183.476 106.807,183.757 106.667,183.958 106.667 C 184.159 106.667,184.439 106.529,184.579 106.360 C 184.719 106.191,185.152 105.993,185.542 105.920 C 185.943 105.844,186.250 105.662,186.250 105.498 C 186.250 105.327,186.466 105.208,186.777 105.208 C 187.067 105.208,187.357 105.073,187.420 104.909 C 187.483 104.744,187.808 104.549,188.142 104.475 C 188.477 104.402,188.750 104.267,188.750 104.175 C 188.750 104.084,189.031 103.892,189.375 103.750 C 189.719 103.608,190.000 103.409,190.000 103.308 C 190.000 103.207,190.230 103.125,190.510 103.125 C 190.791 103.125,191.096 103.006,191.188 102.860 C 191.279 102.715,191.589 102.479,191.875 102.337 C 192.911 101.822,194.161 101.076,194.707 100.647 C 195.014 100.406,195.442 100.208,195.660 100.208 C 195.877 100.208,196.105 100.076,196.167 99.915 C 196.229 99.753,196.508 99.564,196.786 99.494 C 197.064 99.424,197.292 99.275,197.292 99.163 C 197.292 99.050,197.418 98.958,197.572 98.958 C 197.726 98.958,198.022 98.771,198.229 98.542 C 198.437 98.312,198.768 98.125,198.965 98.125 C 199.162 98.125,199.441 97.984,199.583 97.812 C 199.726 97.641,199.953 97.500,200.087 97.500 C 200.339 97.500,201.001 97.049,201.691 96.406 C 201.907 96.206,202.228 96.042,202.404 96.042 C 202.683 96.042,203.867 95.331,204.167 94.984 C 204.224 94.917,204.776 94.589,205.393 94.254 C 206.010 93.920,206.805 93.388,207.158 93.073 C 207.512 92.758,207.944 92.500,208.119 92.499 C 208.294 92.498,208.794 92.170,209.230 91.770 C 209.666 91.369,210.119 91.042,210.237 91.042 C 210.355 91.042,210.851 90.714,211.341 90.313 C 211.830 89.911,212.291 89.583,212.365 89.583 C 212.439 89.583,212.688 89.419,212.917 89.219 C 213.146 89.018,213.521 88.690,213.750 88.490 C 213.979 88.289,214.250 88.125,214.353 88.125 C 214.455 88.125,214.593 87.984,214.659 87.813 C 214.725 87.641,214.889 87.500,215.024 87.500 C 215.237 87.500,216.521 86.558,217.500 85.683 C 218.368 84.908,218.841 84.583,219.101 84.583 C 219.259 84.583,219.442 84.443,219.508 84.271 C 219.574 84.099,219.707 83.958,219.804 83.958 C 220.046 83.958,221.042 82.945,221.042 82.699 C 221.042 82.589,221.232 82.500,221.465 82.500 C 221.698 82.500,221.942 82.359,222.008 82.188 C 222.074 82.016,222.235 81.873,222.366 81.870 C 222.497 81.868,223.127 81.376,223.765 80.777 C 224.404 80.178,225.000 79.676,225.090 79.662 C 225.181 79.647,225.800 79.155,226.467 78.568 C 227.135 77.981,227.780 77.500,227.903 77.500 C 228.025 77.500,228.127 77.383,228.129 77.240 C 228.132 77.096,228.507 76.715,228.963 76.393 C 229.419 76.070,229.792 75.719,229.792 75.611 C 229.792 75.504,229.926 75.417,230.090 75.417 C 230.255 75.417,231.390 74.456,232.613 73.281 C 235.955 70.073,236.267 69.782,237.708 68.542 C 239.772 66.764,242.500 63.893,242.500 63.498 C 242.500 63.407,242.641 63.333,242.813 63.333 C 242.984 63.333,243.125 63.230,243.125 63.104 C 243.125 62.978,243.594 62.416,244.167 61.855 C 244.740 61.294,245.208 60.801,245.208 60.758 C 245.208 60.716,245.803 60.082,246.530 59.351 C 247.256 58.619,248.383 57.345,249.033 56.518 C 249.682 55.691,250.682 54.519,251.255 53.914 C 251.827 53.308,252.348 52.648,252.412 52.448 C 252.476 52.247,252.616 52.083,252.722 52.083 C 252.829 52.083,252.917 51.975,252.917 51.842 C 252.917 51.709,253.440 51.029,254.080 50.331 C 255.827 48.425,255.833 48.417,255.833 48.206 C 255.833 48.098,255.997 47.857,256.198 47.671 C 257.077 46.855,258.125 45.630,258.125 45.420 C 258.125 45.178,258.266 44.988,259.271 43.884 C 260.063 43.014,260.833 41.945,260.833 41.716 C 260.833 41.619,261.161 41.222,261.563 40.833 C 261.964 40.445,262.292 39.957,262.292 39.751 C 262.292 39.544,262.388 39.375,262.507 39.375 C 262.625 39.375,262.779 39.225,262.849 39.043 C 262.919 38.860,263.245 38.416,263.573 38.057 C 263.901 37.699,264.228 37.215,264.301 36.984 C 264.374 36.752,264.748 36.237,265.133 35.839 C 265.518 35.442,265.833 34.954,265.833 34.756 C 265.833 34.558,265.951 34.321,266.094 34.229 C 266.408 34.028,266.803 33.432,267.137 32.656 C 267.272 32.341,267.461 32.083,267.557 32.083 C 267.652 32.083,267.828 31.802,267.948 31.458 C 268.068 31.115,268.250 30.833,268.354 30.833 C 268.457 30.833,268.542 30.707,268.542 30.553 C 268.542 30.399,268.729 30.103,268.958 29.896 C 269.188 29.688,269.375 29.397,269.375 29.248 C 269.375 28.866,270.338 27.491,270.495 27.648 C 270.567 27.719,270.625 27.542,270.625 27.255 C 270.625 26.967,270.813 26.562,271.042 26.354 C 271.271 26.147,271.458 25.809,271.458 25.603 C 271.458 25.397,271.576 25.154,271.719 25.062 C 272.031 24.863,272.397 24.304,272.819 23.385 C 272.991 23.013,273.223 22.708,273.336 22.708 C 273.449 22.708,273.542 22.485,273.542 22.213 C 273.542 21.941,273.692 21.593,273.876 21.440 C 274.060 21.288,274.294 20.972,274.396 20.738 C 274.646 20.167,275.027 19.597,275.469 19.133 C 275.669 18.922,275.833 18.603,275.833 18.423 C 275.833 18.243,275.974 17.955,276.146 17.783 C 276.318 17.611,276.458 17.289,276.458 17.068 C 276.458 16.847,276.557 16.667,276.678 16.667 C 276.798 16.667,276.995 16.385,277.115 16.042 C 277.234 15.698,277.417 15.417,277.520 15.417 C 277.624 15.417,277.708 15.276,277.708 15.104 C 277.708 14.932,277.896 14.604,278.125 14.375 C 278.354 14.146,278.542 13.802,278.542 13.610 C 278.542 13.419,278.685 13.103,278.861 12.910 C 279.036 12.716,279.222 12.338,279.273 12.070 C 279.325 11.803,279.509 11.504,279.684 11.406 C 279.858 11.309,280.000 10.953,280.000 10.615 C 280.000 10.277,280.092 10.000,280.204 10.000 C 280.317 10.000,280.471 9.742,280.546 9.427 C 280.622 9.112,280.858 8.686,281.071 8.481 C 281.284 8.276,281.458 7.843,281.458 7.517 C 281.458 7.192,281.599 6.809,281.771 6.667 C 281.943 6.524,282.083 6.184,282.083 5.912 C 282.083 5.640,282.271 5.229,282.500 5.000 C 282.729 4.771,282.917 4.406,282.917 4.189 C 282.917 3.972,283.057 3.741,283.229 3.675 C 283.413 3.604,283.542 3.292,283.542 2.917 C 283.542 2.542,283.671 2.229,283.854 2.159 C 284.058 2.080,284.167 1.756,284.167 1.228 L 284.167 0.417 142.083 0.417 L -0.001 0.417 0.052 55.260 M399.183 84.436 C 399.083 84.698,398.851 85.038,398.668 85.190 C 398.484 85.343,398.333 85.681,398.333 85.941 C 398.333 86.201,398.193 86.468,398.021 86.534 C 397.849 86.600,397.708 86.894,397.708 87.188 C 397.708 87.481,397.574 87.773,397.410 87.836 C 397.247 87.899,397.014 88.200,396.893 88.506 C 396.599 89.248,396.204 89.859,395.885 90.062 C 395.742 90.154,395.625 90.438,395.625 90.693 C 395.625 90.949,395.438 91.318,395.208 91.514 C 394.979 91.710,394.792 92.016,394.792 92.194 C 394.792 92.528,394.537 92.903,393.906 93.498 C 393.706 93.688,393.542 93.995,393.542 94.181 C 393.542 94.367,393.354 94.688,393.125 94.896 C 392.896 95.103,392.708 95.493,392.708 95.761 C 392.708 96.040,392.584 96.250,392.418 96.250 C 392.259 96.250,392.070 96.484,391.998 96.771 C 391.926 97.057,391.783 97.292,391.679 97.292 C 391.576 97.292,391.430 97.573,391.354 97.917 C 391.279 98.260,391.139 98.542,391.044 98.542 C 390.948 98.542,390.663 98.971,390.409 99.496 C 390.154 100.021,389.824 100.497,389.674 100.555 C 389.523 100.613,389.339 100.940,389.264 101.281 C 389.189 101.623,388.996 101.954,388.835 102.016 C 388.673 102.077,388.542 102.299,388.542 102.507 C 388.542 102.716,388.424 103.013,388.281 103.168 C 387.762 103.728,387.083 104.781,387.083 105.026 C 387.083 105.164,386.937 105.426,386.759 105.608 C 386.337 106.036,385.000 108.110,385.000 108.336 C 385.000 108.431,384.672 108.940,384.271 109.465 C 383.870 109.990,383.542 110.490,383.542 110.575 C 383.541 110.660,383.213 111.098,382.812 111.548 C 382.411 111.999,382.083 112.517,382.083 112.700 C 382.083 112.883,381.919 113.183,381.719 113.368 C 381.162 113.879,380.625 114.640,380.625 114.916 C 380.625 115.052,380.484 115.218,380.313 115.284 C 380.141 115.350,380.000 115.537,380.000 115.700 C 380.000 115.864,379.859 116.051,379.688 116.117 C 379.516 116.183,379.375 116.366,379.375 116.524 C 379.375 116.681,379.188 116.980,378.958 117.188 C 378.729 117.395,378.542 117.648,378.542 117.749 C 378.542 117.947,378.431 118.100,377.610 119.041 C 377.320 119.373,377.083 119.774,377.083 119.933 C 377.083 120.092,376.824 120.477,376.506 120.788 C 376.189 121.100,375.701 121.729,375.423 122.188 C 374.941 122.981,374.428 123.621,373.385 124.729 C 373.128 125.003,372.917 125.367,372.917 125.537 C 372.917 125.707,372.589 126.147,372.188 126.515 C 371.786 126.883,371.458 127.302,371.458 127.446 C 371.458 127.590,371.366 127.708,371.254 127.708 C 371.142 127.708,370.995 127.926,370.928 128.191 C 370.862 128.457,370.347 129.137,369.785 129.702 C 369.223 130.267,368.760 130.889,368.757 131.084 C 368.750 131.463,367.822 132.500,367.491 132.500 C 367.381 132.500,367.292 132.641,367.292 132.813 C 367.292 132.984,367.207 133.125,367.104 133.125 C 366.937 133.125,366.076 134.353,365.862 134.896 C 365.817 135.010,365.534 135.339,365.233 135.625 C 364.477 136.345,363.126 138.024,363.121 138.251 C 363.118 138.353,362.606 138.973,361.982 139.628 C 361.358 140.283,360.620 141.173,360.341 141.607 C 360.062 142.041,359.129 143.118,358.267 144.002 C 357.405 144.885,356.639 145.799,356.565 146.033 C 356.491 146.267,356.343 146.458,356.236 146.458 C 356.129 146.458,356.042 146.553,356.042 146.668 C 356.042 146.783,355.245 147.686,354.271 148.676 C 353.297 149.665,351.998 151.095,351.384 151.852 C 350.771 152.609,349.997 153.542,349.666 153.924 C 349.017 154.670,331.925 171.805,329.295 174.344 C 328.422 175.187,327.708 175.960,327.708 176.063 C 327.708 176.166,327.589 176.250,327.442 176.250 C 327.296 176.250,327.021 176.414,326.832 176.615 C 326.643 176.815,326.361 177.073,326.206 177.188 C 325.631 177.612,322.792 180.144,321.535 181.354 C 320.120 182.715,319.964 182.847,319.121 183.387 C 318.810 183.587,318.286 184.008,317.957 184.323 C 316.308 185.900,315.319 186.781,315.094 186.875 C 314.785 187.004,312.776 188.686,312.169 189.323 C 311.924 189.581,311.650 189.792,311.560 189.792 C 311.408 189.792,309.822 191.016,309.204 191.610 C 309.052 191.756,308.842 191.875,308.735 191.875 C 308.629 191.875,308.542 192.016,308.542 192.188 C 308.542 192.359,308.375 192.500,308.171 192.500 C 307.968 192.500,307.640 192.688,307.444 192.917 C 307.248 193.146,306.946 193.333,306.773 193.333 C 306.600 193.333,306.458 193.427,306.458 193.542 C 306.458 193.800,305.692 194.583,305.439 194.583 C 305.337 194.583,305.198 194.725,305.132 194.899 C 305.065 195.073,304.797 195.311,304.537 195.429 C 303.606 195.849,303.166 196.169,302.610 196.830 C 302.300 197.198,301.957 197.500,301.848 197.500 C 301.627 197.500,300.557 198.229,299.904 198.824 C 299.670 199.037,299.104 199.447,298.646 199.734 C 298.188 200.021,297.606 200.456,297.354 200.701 C 296.630 201.402,296.282 201.667,296.083 201.667 C 295.981 201.667,295.728 201.854,295.521 202.083 C 295.313 202.313,295.041 202.503,294.916 202.506 C 294.790 202.509,294.416 202.788,294.084 203.126 C 293.753 203.464,293.304 203.797,293.088 203.866 C 292.872 203.935,292.447 204.220,292.144 204.501 C 291.842 204.781,291.095 205.297,290.484 205.646 C 289.874 205.995,289.375 206.367,289.375 206.474 C 289.375 206.580,289.231 206.667,289.056 206.667 C 288.880 206.667,288.683 206.807,288.617 206.979 C 288.551 207.151,288.366 207.292,288.205 207.292 C 288.044 207.292,287.752 207.479,287.556 207.708 C 287.360 207.938,287.079 208.125,286.933 208.125 C 286.786 208.125,286.667 208.211,286.667 208.317 C 286.667 208.423,286.347 208.615,285.956 208.744 C 285.565 208.873,285.193 209.115,285.129 209.281 C 285.065 209.447,284.870 209.583,284.694 209.583 C 284.519 209.583,284.375 209.672,284.375 209.780 C 284.375 209.964,283.991 210.215,282.708 210.871 C 282.422 211.017,282.113 211.256,282.021 211.402 C 281.929 211.548,281.715 211.667,281.546 211.667 C 281.376 211.667,281.187 211.797,281.126 211.956 C 281.065 212.115,280.763 212.297,280.455 212.361 C 280.148 212.424,279.585 212.763,279.206 213.113 C 278.826 213.463,278.355 213.750,278.158 213.750 C 277.962 213.750,277.650 213.914,277.466 214.115 C 276.907 214.723,276.184 215.208,275.837 215.208 C 275.657 215.208,275.349 215.396,275.153 215.625 C 274.956 215.854,274.654 216.042,274.481 216.042 C 274.308 216.042,274.167 216.134,274.167 216.246 C 274.167 216.358,273.932 216.509,273.646 216.581 C 273.359 216.653,273.125 216.842,273.125 217.002 C 273.125 217.161,272.929 217.292,272.689 217.292 C 272.449 217.292,272.015 217.479,271.724 217.708 C 271.432 217.938,271.087 218.125,270.956 218.125 C 270.825 218.125,270.410 218.406,270.034 218.750 C 269.657 219.094,269.173 219.375,268.958 219.375 C 268.742 219.375,268.502 219.478,268.424 219.605 C 268.346 219.731,267.966 219.966,267.579 220.128 C 267.192 220.290,266.875 220.515,266.875 220.628 C 266.875 220.741,266.731 220.833,266.556 220.833 C 266.380 220.833,266.183 220.974,266.117 221.146 C 266.051 221.318,265.794 221.458,265.545 221.458 C 265.296 221.458,264.932 221.646,264.736 221.875 C 264.540 222.104,264.191 222.292,263.960 222.292 C 263.730 222.292,263.542 222.390,263.542 222.511 C 263.542 222.631,263.260 222.828,262.917 222.948 C 262.573 223.068,262.292 223.250,262.292 223.354 C 262.292 223.457,262.150 223.542,261.977 223.542 C 261.804 223.542,261.502 223.729,261.306 223.958 C 261.110 224.188,260.733 224.375,260.468 224.375 C 260.203 224.375,259.933 224.516,259.867 224.688 C 259.801 224.859,259.570 225.000,259.353 225.000 C 259.136 225.000,258.771 225.188,258.542 225.417 C 258.313 225.646,257.989 225.833,257.823 225.833 C 257.657 225.833,257.118 226.103,256.625 226.432 C 256.132 226.761,255.527 227.093,255.280 227.169 C 255.032 227.245,254.778 227.445,254.713 227.612 C 254.649 227.780,254.369 227.917,254.091 227.917 C 253.814 227.917,253.532 228.057,253.466 228.229 C 253.400 228.401,253.156 228.542,252.923 228.542 C 252.690 228.542,252.312 228.729,252.083 228.958 C 251.854 229.188,251.491 229.375,251.276 229.375 C 251.060 229.375,250.768 229.516,250.625 229.688 C 250.482 229.859,250.164 230.000,249.917 230.000 C 249.670 230.000,249.307 230.188,249.111 230.417 C 248.915 230.646,248.589 230.836,248.387 230.840 C 248.186 230.844,247.839 230.984,247.616 231.152 C 247.394 231.321,247.052 231.458,246.857 231.458 C 246.662 231.458,246.449 231.599,246.383 231.771 C 246.317 231.943,246.085 232.083,245.868 232.083 C 245.651 232.083,245.234 232.271,244.943 232.500 C 244.652 232.729,244.217 232.917,243.978 232.917 C 243.729 232.917,243.542 233.051,243.542 233.229 C 243.542 233.421,243.347 233.542,243.036 233.542 C 242.757 233.542,242.389 233.682,242.217 233.854 C 242.045 234.026,241.770 234.167,241.605 234.167 C 241.441 234.167,241.068 234.354,240.776 234.583 C 240.485 234.813,240.048 235.000,239.804 235.000 C 239.561 235.000,239.308 235.141,239.242 235.313 C 239.176 235.484,238.904 235.625,238.638 235.625 C 238.372 235.625,238.026 235.754,237.868 235.912 C 237.710 236.070,237.288 236.264,236.930 236.342 C 236.572 236.421,236.167 236.620,236.031 236.784 C 235.894 236.949,235.571 237.083,235.313 237.083 C 235.054 237.083,234.734 237.214,234.601 237.374 C 234.469 237.534,234.044 237.724,233.659 237.796 C 233.273 237.869,232.904 238.066,232.839 238.235 C 232.774 238.404,232.489 238.542,232.204 238.542 C 231.920 238.542,231.612 238.668,231.521 238.823 C 231.429 238.977,230.987 239.161,230.538 239.232 C 230.089 239.302,229.666 239.450,229.598 239.559 C 229.530 239.669,229.196 239.829,228.854 239.914 C 228.513 240.000,228.108 240.195,227.956 240.348 C 227.803 240.500,227.458 240.625,227.188 240.625 C 226.917 240.625,226.556 240.766,226.384 240.938 C 226.212 241.109,225.899 241.250,225.689 241.250 C 225.478 241.250,224.956 241.438,224.529 241.667 C 224.101 241.896,223.561 242.083,223.328 242.083 C 223.094 242.083,222.850 242.224,222.784 242.396 C 222.709 242.589,222.392 242.708,221.950 242.708 C 221.525 242.708,221.191 242.828,221.123 243.005 C 221.060 243.169,220.649 243.363,220.208 243.438 C 219.768 243.512,219.356 243.706,219.294 243.870 C 219.231 244.033,218.913 244.167,218.588 244.167 C 218.263 244.167,217.814 244.304,217.592 244.473 C 217.369 244.641,216.991 244.781,216.751 244.785 C 216.510 244.789,216.098 244.979,215.833 245.208 C 215.569 245.438,215.097 245.625,214.785 245.625 C 214.473 245.625,214.111 245.753,213.981 245.910 C 213.850 246.067,213.354 246.248,212.878 246.312 C 212.402 246.376,211.930 246.576,211.829 246.756 C 211.728 246.936,211.381 247.083,211.057 247.083 C 210.733 247.083,210.351 247.224,210.208 247.396 C 210.066 247.568,209.671 247.708,209.330 247.708 C 208.990 247.708,208.473 247.896,208.182 248.125 C 207.891 248.354,207.377 248.542,207.040 248.542 C 206.704 248.542,206.288 248.682,206.116 248.854 C 205.944 249.026,205.536 249.167,205.208 249.167 C 204.881 249.167,204.472 249.307,204.301 249.479 C 204.129 249.651,203.707 249.792,203.363 249.792 C 203.019 249.792,202.613 249.917,202.460 250.070 C 202.306 250.223,201.768 250.404,201.264 250.472 C 200.751 250.540,200.265 250.740,200.163 250.922 C 200.046 251.131,199.690 251.250,199.182 251.250 C 198.727 251.250,198.273 251.384,198.125 251.563 C 197.982 251.734,197.562 251.875,197.190 251.875 C 196.819 251.875,196.276 252.063,195.985 252.292 C 195.632 252.569,195.140 252.708,194.509 252.708 C 193.934 252.708,193.497 252.819,193.396 252.990 C 193.304 253.145,192.817 253.326,192.314 253.391 C 191.810 253.457,191.341 253.598,191.272 253.705 C 191.203 253.813,190.677 253.970,190.104 254.054 C 189.531 254.138,189.009 254.295,188.943 254.401 C 188.877 254.507,188.338 254.652,187.746 254.722 C 187.154 254.792,186.564 254.977,186.434 255.133 C 186.305 255.289,185.812 255.417,185.339 255.418 C 184.832 255.419,184.223 255.589,183.854 255.833 C 183.476 256.084,182.877 256.248,182.337 256.249 C 181.738 256.250,181.406 256.352,181.325 256.563 C 181.238 256.790,180.880 256.875,180.003 256.875 C 179.238 256.875,178.715 256.979,178.564 257.161 C 178.433 257.318,177.760 257.511,177.069 257.589 C 176.268 257.680,175.769 257.841,175.696 258.032 C 175.612 258.251,175.219 258.333,174.259 258.333 C 173.371 258.333,172.883 258.426,172.771 258.615 C 172.679 258.769,172.102 258.954,171.488 259.024 C 170.875 259.095,170.265 259.239,170.134 259.345 C 170.003 259.450,169.314 259.603,168.603 259.684 C 167.892 259.764,167.201 259.962,167.067 260.124 C 166.911 260.312,166.404 260.417,165.646 260.417 C 164.997 260.417,164.283 260.543,164.057 260.699 C 163.831 260.854,162.955 261.037,162.111 261.105 C 161.170 261.182,160.438 261.355,160.219 261.552 C 159.990 261.760,159.459 261.875,158.734 261.876 C 158.112 261.877,157.336 262.018,157.007 262.189 C 156.651 262.375,155.847 262.500,155.008 262.500 C 153.871 262.500,153.535 262.579,153.229 262.917 C 152.918 263.260,152.588 263.333,151.347 263.333 C 150.264 263.333,149.770 263.421,149.583 263.646 C 149.389 263.880,148.868 263.958,147.507 263.958 C 145.954 263.958,145.635 264.019,145.313 264.375 C 144.983 264.740,144.671 264.792,142.822 264.792 C 141.522 264.792,140.617 264.883,140.472 265.028 C 140.342 265.158,139.315 265.310,138.190 265.365 C 136.692 265.439,135.972 265.570,135.496 265.858 C 134.968 266.177,134.432 266.250,132.632 266.250 C 131.413 266.250,130.417 266.334,130.417 266.437 C 130.417 266.539,129.052 266.692,127.385 266.775 C 125.425 266.873,124.261 267.018,124.093 267.186 C 123.912 267.368,122.689 267.473,120.042 267.536 C 117.480 267.596,116.169 267.706,116.000 267.875 C 115.821 268.054,114.495 268.125,111.365 268.126 C 105.708 268.126,99.079 268.359,99.381 268.546 C 99.919 268.878,97.793 268.958,88.438 268.958 C 79.054 268.958,77.181 268.889,77.391 268.549 C 77.516 268.348,71.408 268.126,65.719 268.126 C 62.426 268.125,61.054 268.054,60.875 267.875 C 60.706 267.706,59.398 267.598,56.823 267.540 C 54.134 267.480,52.929 267.376,52.708 267.187 C 52.506 267.014,51.346 266.866,49.427 266.770 C 47.794 266.687,46.458 266.537,46.458 266.435 C 46.458 266.333,45.462 266.250,44.243 266.250 C 42.447 266.250,41.906 266.176,41.379 265.859 C 40.913 265.579,40.160 265.437,38.718 265.356 C 37.611 265.295,36.516 265.142,36.283 265.018 C 36.051 264.893,34.978 264.792,33.900 264.792 C 32.204 264.792,31.889 264.735,31.563 264.375 C 31.242 264.021,30.921 263.958,29.432 263.958 C 28.151 263.958,27.594 263.874,27.366 263.646 C 27.146 263.425,26.607 263.333,25.538 263.333 C 24.287 263.333,23.957 263.261,23.646 262.917 C 23.338 262.576,22.999 262.499,21.791 262.493 C 20.822 262.489,20.173 262.381,19.908 262.181 C 19.657 261.991,19.031 261.875,18.258 261.875 C 17.425 261.875,16.894 261.768,16.656 261.552 C 16.437 261.355,15.703 261.181,14.764 261.104 C 13.920 261.035,13.165 260.881,13.087 260.761 C 13.009 260.641,12.311 260.502,11.535 260.453 C 10.759 260.403,10.006 260.244,9.860 260.098 C 9.715 259.953,9.007 259.767,8.288 259.685 C 7.568 259.604,6.868 259.448,6.733 259.338 C 6.598 259.229,5.957 259.085,5.308 259.018 C 4.605 258.945,4.086 258.783,4.022 258.615 C 3.947 258.420,3.512 258.333,2.604 258.333 C 1.632 258.333,1.264 258.253,1.175 258.021 C 1.109 257.849,0.817 257.708,0.527 257.708 L 0.000 257.708 0.000 264.271 L 0.000 270.833 199.792 270.833 L 399.583 270.833 399.583 177.396 C 399.583 126.005,399.534 83.958,399.474 83.958 C 399.414 83.958,399.283 84.173,399.183 84.436 " stroke="none" fill="#ffffff" fill-rule="evenodd"></path></g></svg>