<svg id="svg" version="1.1" xmlns="http://www.w3.org/2000/svg" xmlns:xlink="http://www.w3.org/1999/xlink" width="400" height="400" viewBox="0, 0, 400,400"><g id="svgg"><path id="path0" d="M0.000 200.000 L 0.000 400.000 200.000 400.000 L 400.000 400.000 400.000 200.000 L 400.000 0.000 200.000 0.000 L 0.000 0.000 0.000 200.000 M222.239 38.067 C 320.348 48.478,386.413 142.705,362.815 238.567 C 335.930 347.787,208.223 396.723,114.408 333.755 C 23.894 273.002,18.906 140.442,104.566 72.205 C 136.911 46.439,180.893 33.679,222.239 38.067 M198.700 93.620 C 133.206 97.385,86.340 161.422,102.499 225.070 C 120.945 297.727,206.246 329.130,267.005 285.632 C 329.693 240.753,325.179 147.156,258.421 107.647 C 243.413 98.766,218.088 92.047,204.271 93.282 C 203.965 93.310,201.458 93.462,198.700 93.620 " stroke="none" fill="#ffffff" fill-rule="evenodd"></path></g></svg>