<svg id="svg" xmlns="http://www.w3.org/2000/svg" xmlns:xlink="http://www.w3.org/1999/xlink" width="400" height="400" viewBox="0, 0, 400,400"><g id="svgg"><path id="path0" d="M0.035 95.052 C 0.054 147.331,0.099 189.729,0.135 189.271 C 0.171 188.813,0.301 186.984,0.424 185.208 C 7.249 86.931,86.931 7.249,185.208 0.424 C 186.984 0.301,188.813 0.171,189.271 0.135 C 189.729 0.099,147.331 0.054,95.052 0.035 L 0.000 0.000 0.035 95.052 M210.729 0.135 C 211.188 0.171,213.016 0.301,214.792 0.424 C 313.069 7.249,392.751 86.931,399.576 185.208 C 399.699 186.984,399.829 188.813,399.865 189.271 C 399.901 189.729,399.946 147.331,399.965 95.052 L 400.000 0.000 304.948 0.035 C 252.669 0.054,210.271 0.099,210.729 0.135 M270.416 36.040 C 270.765 36.693,272.447 37.369,274.776 37.791 C 275.728 37.964,275.681 37.936,272.941 36.697 C 270.291 35.499,270.100 35.450,270.416 36.040 M197.604 62.841 C 161.758 64.905,134.760 75.548,109.173 97.702 C 80.795 122.272,62.873 161.870,62.873 200.000 C 62.873 242.537,84.026 284.323,118.475 309.836 C 152.635 335.135,196.521 343.383,236.250 331.970 C 274.969 320.847,305.203 295.791,322.718 260.313 C 343.200 218.821,341.601 171.800,318.332 131.354 C 297.073 94.404,258.246 68.881,215.833 63.979 C 209.213 63.214,200.540 62.672,197.604 62.841 M0.035 304.948 L 0.000 400.000 95.052 399.965 C 147.331 399.946,189.729 399.901,189.271 399.865 C 188.813 399.829,186.984 399.699,185.208 399.576 C 86.931 392.751,7.249 313.069,0.424 214.792 C 0.301 213.016,0.171 211.188,0.135 210.729 C 0.099 210.271,0.054 252.669,0.035 304.948 M399.789 211.302 C 399.775 218.081,397.584 233.718,395.121 244.620 C 375.841 329.934,301.830 393.531,214.792 399.576 C 213.016 399.699,211.188 399.829,210.729 399.865 C 210.271 399.901,252.669 399.946,304.948 399.965 L 400.000 400.000 400.000 305.000 C 400.000 252.750,399.953 210.000,399.896 210.000 C 399.839 210.000,399.790 210.586,399.789 211.302 " stroke="none" fill="#000000" fill-rule="evenodd"></path></g></svg>