<svg id="svg" xmlns="http://www.w3.org/2000/svg" xmlns:xlink="http://www.w3.org/1999/xlink" width="400" height="225" viewBox="0, 0, 400,225"><g id="svgg"><path id="path0" d="M-0.000 59.671 L -0.000 119.342 0.625 119.479 C 0.969 119.555,1.250 119.702,1.250 119.806 C 1.250 119.910,1.623 120.055,2.079 120.128 C 2.536 120.201,3.016 120.389,3.147 120.547 C 3.277 120.704,3.596 120.833,3.854 120.833 C 4.113 120.833,4.441 120.974,4.583 121.146 C 4.726 121.318,5.145 121.458,5.514 121.458 C 5.921 121.458,6.334 121.623,6.562 121.875 C 6.775 122.110,7.204 122.292,7.547 122.292 C 7.881 122.292,8.295 122.432,8.467 122.604 C 8.639 122.776,9.050 122.917,9.380 122.917 C 9.709 122.917,10.062 123.064,10.163 123.244 C 10.266 123.429,10.748 123.624,11.267 123.691 C 11.773 123.757,12.262 123.938,12.354 124.093 C 12.448 124.252,12.869 124.375,13.321 124.375 C 13.816 124.375,14.165 124.487,14.234 124.667 C 14.296 124.827,14.751 125.026,15.246 125.110 C 15.741 125.193,16.331 125.389,16.557 125.547 C 16.783 125.704,17.312 125.833,17.732 125.833 C 18.220 125.833,18.541 125.947,18.617 126.146 C 18.693 126.345,19.014 126.458,19.500 126.458 C 19.920 126.458,20.556 126.630,20.913 126.839 C 21.270 127.048,21.938 127.242,22.396 127.270 C 22.854 127.297,23.333 127.454,23.460 127.618 C 23.607 127.807,24.076 127.917,24.737 127.917 C 25.375 127.917,25.876 128.029,26.022 128.206 C 26.154 128.365,26.791 128.561,27.436 128.642 C 28.082 128.723,28.742 128.920,28.903 129.082 C 29.081 129.259,29.627 129.375,30.286 129.375 C 30.885 129.375,31.484 129.484,31.617 129.617 C 31.750 129.750,32.393 129.932,33.044 130.020 C 33.696 130.109,34.294 130.285,34.372 130.412 C 34.451 130.539,35.210 130.700,36.060 130.769 C 37.022 130.847,37.667 131.001,37.771 131.177 C 37.881 131.363,38.354 131.458,39.162 131.458 C 39.973 131.458,40.493 131.564,40.699 131.771 C 40.920 131.992,41.460 132.083,42.540 132.083 C 43.671 132.083,44.271 132.192,44.846 132.500 C 45.422 132.809,46.022 132.917,47.161 132.917 C 48.274 132.917,48.771 133.003,48.958 133.229 C 49.158 133.470,49.711 133.542,51.369 133.542 C 53.125 133.542,53.555 133.603,53.707 133.875 C 53.854 134.137,54.382 134.233,56.166 134.321 C 57.475 134.387,58.500 134.532,58.586 134.665 C 58.682 134.815,59.995 134.917,62.336 134.958 C 65.438 135.011,65.975 135.069,66.207 135.374 C 66.629 135.931,99.505 135.921,99.817 135.365 C 99.998 135.041,100.397 135.000,103.364 135.000 C 105.800 135.000,106.886 134.920,107.364 134.705 C 107.725 134.543,108.937 134.368,110.056 134.317 C 111.550 134.249,112.191 134.134,112.468 133.883 C 112.762 133.617,113.284 133.542,114.835 133.542 C 116.349 133.542,116.886 133.467,117.083 133.229 C 117.271 133.003,117.768 132.917,118.880 132.917 C 120.020 132.917,120.619 132.809,121.196 132.500 C 121.771 132.192,122.371 132.083,123.501 132.083 C 124.582 132.083,125.121 131.992,125.342 131.771 C 125.549 131.564,126.069 131.458,126.880 131.458 C 127.691 131.458,128.160 131.363,128.271 131.175 C 128.374 131.000,128.985 130.849,129.870 130.780 C 130.658 130.719,131.365 130.568,131.442 130.444 C 131.518 130.320,132.231 130.127,133.027 130.014 C 133.822 129.901,134.506 129.711,134.546 129.592 C 134.585 129.473,135.056 129.374,135.590 129.374 C 136.125 129.373,136.826 129.235,137.149 129.067 C 137.471 128.898,138.196 128.700,138.760 128.625 C 139.323 128.550,139.891 128.360,140.022 128.203 C 140.166 128.030,140.672 127.917,141.305 127.917 C 141.965 127.917,142.435 127.807,142.581 127.618 C 142.708 127.454,143.188 127.297,143.646 127.270 C 144.104 127.242,144.771 127.048,145.129 126.839 C 145.486 126.630,146.122 126.458,146.542 126.458 C 147.028 126.458,147.348 126.345,147.425 126.146 C 147.496 125.960,147.810 125.833,148.199 125.832 C 148.560 125.831,149.104 125.700,149.410 125.541 C 149.716 125.381,150.355 125.185,150.831 125.105 C 151.306 125.024,151.746 124.827,151.808 124.667 C 151.877 124.487,152.225 124.375,152.716 124.375 C 153.154 124.375,153.637 124.250,153.789 124.098 C 153.941 123.946,154.418 123.764,154.848 123.694 C 155.278 123.624,155.776 123.421,155.955 123.242 C 156.133 123.063,156.501 122.917,156.771 122.917 C 157.041 122.917,157.403 122.776,157.574 122.604 C 157.746 122.432,158.160 122.292,158.494 122.292 C 158.838 122.292,159.266 122.110,159.479 121.875 C 159.708 121.623,160.121 121.458,160.528 121.458 C 160.897 121.458,161.316 121.318,161.458 121.146 C 161.601 120.974,161.977 120.833,162.295 120.833 C 162.612 120.833,162.921 120.706,162.981 120.550 C 163.040 120.395,163.460 120.208,163.913 120.136 C 164.367 120.063,164.855 119.862,164.998 119.689 C 165.142 119.516,165.518 119.375,165.833 119.375 C 166.149 119.375,166.519 119.240,166.656 119.076 C 166.792 118.911,167.179 118.716,167.514 118.643 C 167.850 118.569,168.125 118.433,168.125 118.340 C 168.125 118.248,168.539 118.110,169.044 118.034 C 169.551 117.959,170.015 117.761,170.079 117.594 C 170.143 117.428,170.426 117.292,170.708 117.292 C 170.990 117.292,171.361 117.151,171.533 116.979 C 171.705 116.807,171.993 116.667,172.173 116.667 C 172.353 116.667,172.687 116.479,172.917 116.250 C 173.150 116.017,173.611 115.833,173.965 115.833 C 174.314 115.833,174.646 115.703,174.708 115.541 C 174.770 115.381,175.133 115.191,175.514 115.119 C 175.896 115.048,176.323 114.851,176.463 114.682 C 176.603 114.513,176.929 114.375,177.188 114.375 C 177.446 114.375,177.774 114.234,177.917 114.063 C 178.059 113.891,178.341 113.750,178.542 113.750 C 178.743 113.750,179.022 113.612,179.162 113.443 C 179.302 113.274,179.736 113.076,180.125 113.003 C 180.527 112.928,180.833 112.745,180.833 112.581 C 180.833 112.410,181.050 112.292,181.361 112.292 C 181.651 112.292,181.940 112.157,182.003 111.992 C 182.066 111.827,182.392 111.632,182.726 111.559 C 183.060 111.485,183.333 111.350,183.333 111.259 C 183.333 111.167,183.615 110.976,183.958 110.833 C 184.302 110.691,184.583 110.492,184.583 110.391 C 184.583 110.291,184.813 110.208,185.094 110.208 C 185.375 110.208,185.679 110.089,185.771 109.944 C 185.863 109.798,186.172 109.562,186.458 109.420 C 187.494 108.906,188.744 108.160,189.290 107.730 C 189.597 107.489,190.026 107.292,190.243 107.292 C 190.460 107.292,190.689 107.160,190.751 106.998 C 190.813 106.836,191.091 106.647,191.369 106.577 C 191.647 106.508,191.875 106.358,191.875 106.246 C 191.875 106.134,192.001 106.042,192.155 106.042 C 192.309 106.042,192.605 105.854,192.813 105.625 C 193.020 105.396,193.351 105.208,193.548 105.208 C 193.746 105.208,194.024 105.068,194.167 104.896 C 194.309 104.724,194.536 104.583,194.671 104.583 C 194.922 104.583,195.584 104.132,196.275 103.490 C 196.490 103.289,196.811 103.125,196.988 103.125 C 197.266 103.125,198.450 102.414,198.750 102.067 C 198.807 102.000,199.359 101.672,199.976 101.338 C 200.594 101.003,201.388 100.471,201.742 100.156 C 202.095 99.841,202.528 99.583,202.703 99.582 C 202.878 99.582,203.378 99.254,203.814 98.853 C 204.250 98.453,204.703 98.125,204.820 98.125 C 204.938 98.125,205.434 97.797,205.924 97.396 C 206.413 96.995,206.874 96.667,206.949 96.667 C 207.023 96.667,207.271 96.503,207.500 96.302 C 207.729 96.102,208.104 95.773,208.333 95.573 C 208.563 95.372,208.834 95.208,208.936 95.208 C 209.038 95.208,209.176 95.068,209.242 94.896 C 209.308 94.724,209.472 94.583,209.607 94.583 C 209.820 94.583,211.104 93.641,212.083 92.766 C 212.951 91.992,213.424 91.667,213.684 91.667 C 213.842 91.667,214.025 91.526,214.091 91.354 C 214.157 91.182,214.291 91.042,214.388 91.042 C 214.630 91.042,215.625 90.028,215.625 89.782 C 215.625 89.673,215.815 89.583,216.048 89.583 C 216.281 89.583,216.525 89.443,216.591 89.271 C 216.657 89.099,216.818 88.956,216.949 88.954 C 217.080 88.951,217.710 88.459,218.349 87.860 C 218.987 87.261,219.584 86.759,219.674 86.745 C 219.764 86.731,220.384 86.238,221.051 85.651 C 221.718 85.064,222.364 84.583,222.486 84.583 C 222.608 84.583,222.710 84.466,222.713 84.323 C 222.715 84.180,223.090 83.799,223.546 83.476 C 224.002 83.154,224.375 82.802,224.375 82.695 C 224.375 82.588,224.509 82.500,224.674 82.500 C 224.838 82.500,225.973 81.539,227.197 80.365 C 230.538 77.156,230.851 76.866,232.291 75.625 C 234.356 73.847,237.083 70.976,237.083 70.581 C 237.083 70.491,237.224 70.417,237.396 70.417 C 237.568 70.417,237.708 70.314,237.708 70.188 C 237.708 70.062,238.177 69.500,238.750 68.939 C 239.323 68.378,239.792 67.884,239.792 67.841 C 239.792 67.799,240.386 67.166,241.113 66.434 C 241.840 65.703,242.966 64.428,243.616 63.601 C 244.266 62.775,245.266 61.603,245.838 60.997 C 246.410 60.391,246.931 59.732,246.995 59.531 C 247.059 59.331,247.199 59.167,247.306 59.167 C 247.413 59.167,247.500 59.058,247.500 58.925 C 247.500 58.792,248.023 58.113,248.663 57.415 C 250.410 55.509,250.417 55.501,250.417 55.289 C 250.417 55.181,250.581 54.940,250.781 54.754 C 251.660 53.938,252.708 52.714,252.708 52.503 C 252.708 52.261,252.850 52.072,253.854 50.968 C 254.646 50.097,255.417 49.028,255.417 48.799 C 255.417 48.703,255.745 48.305,256.146 47.917 C 256.547 47.528,256.875 47.041,256.875 46.834 C 256.875 46.627,256.972 46.458,257.090 46.458 C 257.208 46.458,257.362 46.309,257.432 46.126 C 257.502 45.943,257.828 45.500,258.156 45.141 C 258.484 44.782,258.812 44.299,258.884 44.067 C 258.957 43.835,259.332 43.320,259.717 42.923 C 260.102 42.525,260.417 42.038,260.417 41.839 C 260.417 41.641,260.534 41.404,260.677 41.312 C 260.991 41.112,261.386 40.516,261.720 39.740 C 261.855 39.424,262.044 39.167,262.140 39.167 C 262.235 39.167,262.411 38.885,262.531 38.542 C 262.651 38.198,262.834 37.917,262.937 37.917 C 263.040 37.917,263.125 37.791,263.125 37.636 C 263.125 37.482,263.313 37.187,263.542 36.979 C 263.771 36.772,263.958 36.480,263.958 36.331 C 263.958 35.949,264.921 34.574,265.078 34.731 C 265.150 34.803,265.208 34.626,265.208 34.338 C 265.208 34.050,265.396 33.645,265.625 33.438 C 265.854 33.230,266.042 32.892,266.042 32.686 C 266.042 32.481,266.159 32.237,266.302 32.146 C 266.614 31.946,266.981 31.387,267.403 30.469 C 267.574 30.096,267.806 29.792,267.919 29.792 C 268.033 29.792,268.125 29.569,268.125 29.296 C 268.125 29.024,268.275 28.676,268.459 28.524 C 268.643 28.371,268.877 28.055,268.980 27.821 C 269.229 27.250,269.611 26.680,270.052 26.216 C 270.253 26.006,270.417 25.686,270.417 25.506 C 270.417 25.326,270.557 25.038,270.729 24.866 C 270.901 24.694,271.042 24.373,271.042 24.152 C 271.042 23.931,271.140 23.750,271.261 23.750 C 271.381 23.750,271.578 23.469,271.698 23.125 C 271.818 22.781,272.000 22.500,272.104 22.500 C 272.207 22.500,272.292 22.359,272.292 22.187 C 272.292 22.016,272.479 21.687,272.708 21.458 C 272.937 21.229,273.125 20.885,273.125 20.693 C 273.125 20.502,273.269 20.187,273.444 19.993 C 273.619 19.799,273.805 19.421,273.857 19.154 C 273.908 18.886,274.093 18.587,274.267 18.490 C 274.441 18.392,274.583 18.036,274.583 17.698 C 274.583 17.360,274.675 17.083,274.788 17.083 C 274.900 17.083,275.054 16.826,275.130 16.510 C 275.205 16.195,275.441 15.770,275.654 15.565 C 275.867 15.360,276.042 14.926,276.042 14.601 C 276.042 14.275,276.182 13.893,276.354 13.750 C 276.526 13.607,276.667 13.268,276.667 12.995 C 276.667 12.723,276.854 12.312,277.083 12.083 C 277.312 11.854,277.500 11.489,277.500 11.272 C 277.500 11.055,277.641 10.824,277.813 10.758 C 277.996 10.688,278.125 10.375,278.125 10.000 C 278.125 9.625,278.254 9.312,278.438 9.242 C 278.641 9.164,278.750 8.841,278.750 8.318 C 278.750 7.728,278.861 7.456,279.167 7.292 C 279.439 7.146,279.583 6.855,279.583 6.451 C 279.583 6.041,279.688 5.833,279.896 5.833 C 280.112 5.833,280.208 5.616,280.208 5.130 C 280.208 4.743,280.350 4.309,280.523 4.165 C 280.696 4.022,280.894 3.547,280.964 3.111 C 281.034 2.674,281.220 2.268,281.379 2.207 C 281.537 2.146,281.667 1.824,281.667 1.490 C 281.667 1.157,281.807 0.768,281.979 0.625 C 282.151 0.482,282.292 0.283,282.292 0.183 C 282.292 0.078,221.975 0.000,141.146 0.000 L 0.000 0.000 -0.000 59.671 M399.625 80.250 C 399.488 80.387,399.375 80.693,399.375 80.929 C 399.375 81.165,399.188 81.475,398.958 81.618 C 398.729 81.761,398.542 82.045,398.542 82.249 C 398.542 82.624,397.921 83.972,397.534 84.438 C 397.419 84.576,397.262 84.940,397.185 85.247 C 397.109 85.553,396.914 85.854,396.752 85.916 C 396.590 85.978,396.458 86.256,396.458 86.534 C 396.458 86.811,396.318 87.093,396.146 87.159 C 395.974 87.225,395.833 87.485,395.833 87.737 C 395.833 87.990,395.678 88.368,395.487 88.579 C 395.099 89.008,394.856 89.422,394.090 90.956 C 393.799 91.539,393.416 92.136,393.239 92.284 C 393.062 92.431,392.917 92.764,392.917 93.024 C 392.917 93.284,392.776 93.551,392.604 93.617 C 392.432 93.683,392.292 93.977,392.292 94.271 C 392.292 94.564,392.158 94.856,391.994 94.919 C 391.830 94.982,391.597 95.284,391.476 95.590 C 391.183 96.331,390.787 96.942,390.469 97.146 C 390.326 97.237,390.208 97.521,390.208 97.777 C 390.208 98.032,390.021 98.401,389.792 98.597 C 389.563 98.794,389.375 99.100,389.375 99.278 C 389.375 99.611,389.121 99.986,388.490 100.582 C 388.289 100.771,388.125 101.078,388.125 101.264 C 388.125 101.450,387.938 101.772,387.708 101.979 C 387.479 102.187,387.292 102.576,387.292 102.845 C 387.292 103.123,387.167 103.333,387.002 103.333 C 386.842 103.333,386.653 103.568,386.581 103.854 C 386.509 104.141,386.366 104.375,386.263 104.375 C 386.159 104.375,386.013 104.656,385.938 105.000 C 385.862 105.344,385.722 105.625,385.627 105.625 C 385.532 105.625,385.246 106.054,384.992 106.579 C 384.738 107.104,384.407 107.581,384.257 107.638 C 384.107 107.696,383.922 108.023,383.847 108.365 C 383.772 108.707,383.579 109.037,383.418 109.099 C 383.257 109.161,383.125 109.382,383.125 109.591 C 383.125 109.799,383.008 110.097,382.865 110.251 C 382.345 110.812,381.667 111.864,381.667 112.110 C 381.667 112.248,381.520 112.509,381.342 112.691 C 380.920 113.119,379.583 115.193,379.583 115.419 C 379.583 115.515,379.255 116.023,378.854 116.548 C 378.453 117.074,378.125 117.573,378.125 117.658 C 378.125 117.743,377.797 118.181,377.396 118.632 C 376.995 119.082,376.667 119.600,376.667 119.783 C 376.667 119.966,376.503 120.267,376.302 120.451 C 375.745 120.963,375.208 121.723,375.208 121.999 C 375.208 122.136,375.068 122.301,374.896 122.367 C 374.724 122.433,374.583 122.620,374.583 122.784 C 374.583 122.947,374.443 123.134,374.271 123.200 C 374.099 123.266,373.958 123.449,373.958 123.607 C 373.958 123.765,373.771 124.063,373.542 124.271 C 373.313 124.478,373.125 124.731,373.125 124.833 C 373.125 125.031,373.015 125.183,372.193 126.124 C 371.904 126.456,371.667 126.858,371.667 127.017 C 371.667 127.176,371.407 127.560,371.090 127.872 C 370.772 128.183,370.285 128.813,370.006 129.271 C 369.524 130.065,369.011 130.705,367.969 131.812 C 367.711 132.086,367.500 132.450,367.500 132.620 C 367.500 132.790,367.172 133.231,366.771 133.599 C 366.370 133.967,366.042 134.386,366.042 134.530 C 366.042 134.674,365.950 134.792,365.837 134.792 C 365.725 134.792,365.578 135.009,365.512 135.275 C 365.445 135.540,364.931 136.220,364.369 136.785 C 363.807 137.350,363.344 137.972,363.340 138.168 C 363.333 138.547,362.406 139.583,362.074 139.583 C 361.964 139.583,361.875 139.724,361.875 139.896 C 361.875 140.068,361.791 140.208,361.687 140.208 C 361.520 140.208,360.659 141.436,360.445 141.979 C 360.400 142.094,360.117 142.422,359.816 142.708 C 359.060 143.428,357.709 145.107,357.704 145.334 C 357.702 145.437,357.189 146.057,356.565 146.711 C 355.942 147.366,355.203 148.257,354.925 148.690 C 354.646 149.124,353.712 150.202,352.851 151.085 C 351.989 151.968,351.223 152.882,351.149 153.116 C 351.074 153.350,350.926 153.542,350.819 153.542 C 350.712 153.542,350.625 153.636,350.625 153.751 C 350.625 153.866,349.828 154.770,348.854 155.759 C 347.880 156.749,346.581 158.178,345.968 158.935 C 345.354 159.693,344.581 160.625,344.249 161.007 C 343.601 161.754,326.508 178.888,323.878 181.428 C 323.006 182.270,322.292 183.044,322.292 183.147 C 322.292 183.249,322.172 183.333,322.025 183.333 C 321.879 183.333,321.604 183.497,321.415 183.698 C 321.226 183.898,320.944 184.156,320.789 184.271 C 320.214 184.695,317.376 187.227,316.118 188.438 C 314.704 189.798,314.547 189.930,313.705 190.471 C 313.393 190.670,312.869 191.092,312.540 191.407 C 310.891 192.983,309.903 193.864,309.677 193.958 C 309.369 194.087,307.359 195.769,306.753 196.406 C 306.507 196.664,306.233 196.875,306.143 196.875 C 305.991 196.875,304.406 198.099,303.787 198.694 C 303.636 198.839,303.425 198.958,303.318 198.958 C 303.212 198.958,303.125 199.099,303.125 199.271 C 303.125 199.443,302.958 199.583,302.755 199.583 C 302.551 199.583,302.224 199.771,302.028 200.000 C 301.831 200.229,301.529 200.417,301.356 200.417 C 301.183 200.417,301.042 200.510,301.042 200.625 C 301.042 200.884,300.275 201.667,300.022 201.667 C 299.920 201.667,299.782 201.809,299.715 201.982 C 299.649 202.156,299.381 202.394,299.120 202.512 C 298.190 202.932,297.749 203.252,297.193 203.913 C 296.883 204.282,296.540 204.583,296.431 204.583 C 296.211 204.583,295.140 205.313,294.487 205.908 C 294.254 206.121,293.688 206.530,293.229 206.817 C 292.771 207.105,292.189 207.540,291.937 207.784 C 291.213 208.486,290.865 208.750,290.666 208.750 C 290.564 208.750,290.312 208.937,290.104 209.167 C 289.897 209.396,289.624 209.586,289.499 209.589 C 289.373 209.592,288.999 209.872,288.668 210.210 C 288.336 210.548,287.888 210.881,287.671 210.949 C 287.455 211.018,287.031 211.304,286.728 211.584 C 286.425 211.865,285.678 212.380,285.068 212.729 C 284.458 213.078,283.958 213.451,283.958 213.557 C 283.958 213.663,283.815 213.750,283.639 213.750 C 283.464 213.750,283.266 213.891,283.200 214.063 C 283.134 214.234,282.949 214.375,282.788 214.375 C 282.627 214.375,282.335 214.563,282.139 214.792 C 281.943 215.021,281.663 215.208,281.516 215.208 C 281.370 215.208,281.250 215.295,281.250 215.401 C 281.250 215.506,280.930 215.698,280.539 215.827 C 280.148 215.956,279.776 216.198,279.712 216.364 C 279.649 216.531,279.453 216.667,279.277 216.667 C 279.102 216.667,278.958 216.755,278.958 216.864 C 278.958 217.047,278.575 217.298,277.292 217.954 C 277.005 218.101,276.696 218.340,276.604 218.485 C 276.513 218.631,276.299 218.750,276.129 218.750 C 275.959 218.750,275.770 218.880,275.709 219.039 C 275.648 219.198,275.347 219.380,275.039 219.444 C 274.731 219.508,274.169 219.846,273.789 220.196 C 273.410 220.547,272.938 220.833,272.742 220.833 C 272.545 220.833,272.233 220.997,272.049 221.198 C 271.490 221.806,270.767 222.292,270.421 222.292 C 270.240 222.292,269.932 222.479,269.736 222.708 C 269.540 222.938,269.238 223.125,269.065 223.125 C 268.892 223.125,268.750 223.217,268.750 223.329 C 268.750 223.442,268.516 223.593,268.229 223.664 C 267.943 223.736,267.708 223.926,267.708 224.085 C 267.708 224.251,267.497 224.375,267.213 224.375 C 266.941 224.375,266.601 224.516,266.458 224.688 C 266.228 224.965,273.656 225.000,333.099 225.000 L 400.000 225.000 400.000 152.500 C 400.000 112.625,399.972 80.000,399.938 80.000 C 399.903 80.000,399.763 80.113,399.625 80.250 " stroke="none" fill="#ffffff" fill-rule="evenodd"></path></g></svg>