<svg id="svg" xmlns="http://www.w3.org/2000/svg" xmlns:xlink="http://www.w3.org/1999/xlink" width="400" height="270.8333333333333" viewBox="0, 0, 400,270.8333333333333"><g id="svgg"><path id="path0" d="M399.183 84.019 C 399.083 84.282,398.851 84.621,398.668 84.774 C 398.484 84.926,398.333 85.264,398.333 85.524 C 398.333 85.784,398.193 86.051,398.021 86.117 C 397.849 86.183,397.708 86.477,397.708 86.771 C 397.708 87.064,397.574 87.356,397.410 87.419 C 397.247 87.482,397.014 87.784,396.893 88.090 C 396.599 88.831,396.204 89.442,395.885 89.646 C 395.742 89.737,395.625 90.021,395.625 90.277 C 395.625 90.532,395.438 90.901,395.208 91.097 C 394.979 91.294,394.792 91.600,394.792 91.778 C 394.792 92.111,394.537 92.486,393.906 93.082 C 393.706 93.271,393.542 93.578,393.542 93.764 C 393.542 93.950,393.354 94.272,393.125 94.479 C 392.896 94.687,392.708 95.076,392.708 95.345 C 392.708 95.623,392.584 95.833,392.418 95.833 C 392.259 95.833,392.070 96.068,391.998 96.354 C 391.926 96.641,391.783 96.875,391.679 96.875 C 391.576 96.875,391.430 97.156,391.354 97.500 C 391.279 97.844,391.139 98.125,391.044 98.125 C 390.948 98.125,390.663 98.554,390.409 99.079 C 390.154 99.604,389.824 100.081,389.674 100.138 C 389.523 100.196,389.339 100.523,389.264 100.865 C 389.189 101.207,388.996 101.537,388.835 101.599 C 388.673 101.661,388.542 101.882,388.542 102.091 C 388.542 102.299,388.424 102.597,388.281 102.751 C 387.762 103.312,387.083 104.364,387.083 104.610 C 387.083 104.748,386.937 105.009,386.759 105.191 C 386.337 105.619,385.000 107.693,385.000 107.919 C 385.000 108.015,384.672 108.523,384.271 109.048 C 383.870 109.574,383.542 110.073,383.542 110.158 C 383.541 110.243,383.213 110.681,382.812 111.132 C 382.411 111.582,382.083 112.100,382.083 112.283 C 382.083 112.466,381.919 112.767,381.719 112.951 C 381.162 113.463,380.625 114.223,380.625 114.499 C 380.625 114.636,380.484 114.801,380.313 114.867 C 380.141 114.933,380.000 115.120,380.000 115.284 C 380.000 115.447,379.859 115.634,379.688 115.700 C 379.516 115.766,379.375 115.949,379.375 116.107 C 379.375 116.265,379.188 116.563,378.958 116.771 C 378.729 116.978,378.542 117.231,378.542 117.333 C 378.542 117.531,378.431 117.683,377.610 118.624 C 377.320 118.956,377.083 119.358,377.083 119.517 C 377.083 119.676,376.824 120.060,376.506 120.372 C 376.189 120.683,375.701 121.313,375.423 121.771 C 374.941 122.565,374.428 123.205,373.385 124.312 C 373.128 124.586,372.917 124.950,372.917 125.120 C 372.917 125.290,372.589 125.731,372.188 126.099 C 371.786 126.467,371.458 126.886,371.458 127.030 C 371.458 127.174,371.366 127.292,371.254 127.292 C 371.142 127.292,370.995 127.509,370.928 127.775 C 370.862 128.040,370.347 128.720,369.785 129.285 C 369.223 129.850,368.760 130.472,368.757 130.668 C 368.750 131.047,367.822 132.083,367.491 132.083 C 367.381 132.083,367.292 132.224,367.292 132.396 C 367.292 132.568,367.207 132.708,367.104 132.708 C 366.937 132.708,366.076 133.936,365.862 134.479 C 365.817 134.594,365.534 134.922,365.233 135.208 C 364.477 135.928,363.126 137.607,363.121 137.834 C 363.118 137.937,362.606 138.557,361.982 139.211 C 361.358 139.866,360.620 140.757,360.341 141.190 C 360.062 141.624,359.129 142.702,358.267 143.585 C 357.405 144.468,356.639 145.382,356.565 145.616 C 356.491 145.850,356.343 146.042,356.236 146.042 C 356.129 146.042,356.042 146.136,356.042 146.251 C 356.042 146.366,355.245 147.270,354.271 148.259 C 353.297 149.249,351.998 150.678,351.384 151.435 C 350.771 152.193,349.997 153.125,349.666 153.507 C 349.017 154.254,331.925 171.388,329.295 173.928 C 328.422 174.770,327.708 175.544,327.708 175.647 C 327.708 175.749,327.589 175.833,327.442 175.833 C 327.296 175.833,327.021 175.997,326.832 176.198 C 326.643 176.398,326.361 176.656,326.206 176.771 C 325.631 177.195,322.792 179.727,321.535 180.938 C 320.120 182.298,319.964 182.430,319.121 182.971 C 318.810 183.170,318.286 183.592,317.957 183.907 C 316.308 185.483,315.319 186.364,315.094 186.458 C 314.785 186.587,312.776 188.269,312.169 188.906 C 311.924 189.164,311.650 189.375,311.560 189.375 C 311.408 189.375,309.822 190.599,309.204 191.194 C 309.052 191.339,308.842 191.458,308.735 191.458 C 308.629 191.458,308.542 191.599,308.542 191.771 C 308.542 191.943,308.375 192.083,308.171 192.083 C 307.968 192.083,307.640 192.271,307.444 192.500 C 307.248 192.729,306.946 192.917,306.773 192.917 C 306.600 192.917,306.458 193.010,306.458 193.125 C 306.458 193.384,305.692 194.167,305.439 194.167 C 305.337 194.167,305.198 194.309,305.132 194.482 C 305.065 194.656,304.797 194.894,304.537 195.012 C 303.606 195.432,303.166 195.752,302.610 196.413 C 302.300 196.782,301.957 197.083,301.848 197.083 C 301.627 197.083,300.557 197.813,299.904 198.408 C 299.670 198.621,299.104 199.030,298.646 199.317 C 298.188 199.605,297.606 200.040,297.354 200.284 C 296.630 200.986,296.282 201.250,296.083 201.250 C 295.981 201.250,295.728 201.437,295.521 201.667 C 295.313 201.896,295.041 202.086,294.916 202.089 C 294.790 202.092,294.416 202.372,294.084 202.710 C 293.753 203.048,293.304 203.381,293.088 203.449 C 292.872 203.518,292.447 203.804,292.144 204.084 C 291.842 204.365,291.095 204.880,290.484 205.229 C 289.874 205.578,289.375 205.951,289.375 206.057 C 289.375 206.163,289.231 206.250,289.056 206.250 C 288.880 206.250,288.683 206.391,288.617 206.563 C 288.551 206.734,288.366 206.875,288.205 206.875 C 288.044 206.875,287.752 207.062,287.556 207.292 C 287.360 207.521,287.079 207.708,286.933 207.708 C 286.786 207.708,286.667 207.795,286.667 207.901 C 286.667 208.006,286.347 208.198,285.956 208.327 C 285.565 208.456,285.193 208.698,285.129 208.864 C 285.065 209.031,284.870 209.167,284.694 209.167 C 284.519 209.167,284.375 209.255,284.375 209.364 C 284.375 209.547,283.991 209.798,282.708 210.454 C 282.422 210.601,282.113 210.840,282.021 210.985 C 281.929 211.131,281.715 211.250,281.546 211.250 C 281.376 211.250,281.187 211.380,281.126 211.539 C 281.065 211.698,280.763 211.880,280.455 211.944 C 280.148 212.008,279.585 212.346,279.206 212.696 C 278.826 213.047,278.355 213.333,278.158 213.333 C 277.962 213.333,277.650 213.497,277.466 213.698 C 276.907 214.306,276.184 214.792,275.837 214.792 C 275.657 214.792,275.349 214.979,275.153 215.208 C 274.956 215.438,274.654 215.625,274.481 215.625 C 274.308 215.625,274.167 215.717,274.167 215.829 C 274.167 215.942,273.932 216.093,273.646 216.164 C 273.359 216.236,273.125 216.426,273.125 216.585 C 273.125 216.745,272.929 216.875,272.689 216.875 C 272.449 216.875,272.015 217.063,271.724 217.292 C 271.432 217.521,271.087 217.708,270.956 217.708 C 270.825 217.708,270.410 217.990,270.034 218.333 C 269.657 218.677,269.173 218.958,268.958 218.958 C 268.742 218.958,268.502 219.062,268.424 219.188 C 268.346 219.314,267.966 219.550,267.579 219.712 C 267.192 219.873,266.875 220.098,266.875 220.211 C 266.875 220.324,266.731 220.417,266.556 220.417 C 266.380 220.417,266.183 220.557,266.117 220.729 C 266.051 220.901,265.794 221.042,265.545 221.042 C 265.296 221.042,264.932 221.229,264.736 221.458 C 264.540 221.688,264.191 221.875,263.960 221.875 C 263.730 221.875,263.542 221.974,263.542 222.094 C 263.542 222.215,263.260 222.411,262.917 222.531 C 262.573 222.651,262.292 222.834,262.292 222.937 C 262.292 223.040,262.150 223.125,261.977 223.125 C 261.804 223.125,261.502 223.313,261.306 223.542 C 261.110 223.771,260.733 223.958,260.468 223.958 C 260.203 223.958,259.933 224.099,259.867 224.271 C 259.801 224.443,259.570 224.583,259.353 224.583 C 259.136 224.583,258.771 224.771,258.542 225.000 C 258.313 225.229,257.989 225.417,257.823 225.417 C 257.657 225.417,257.118 225.686,256.625 226.015 C 256.132 226.345,255.527 226.677,255.280 226.753 C 255.032 226.829,254.778 227.028,254.713 227.195 C 254.649 227.363,254.369 227.500,254.091 227.500 C 253.814 227.500,253.532 227.641,253.466 227.813 C 253.400 227.984,253.156 228.125,252.923 228.125 C 252.690 228.125,252.312 228.313,252.083 228.542 C 251.854 228.771,251.491 228.958,251.276 228.958 C 251.060 228.958,250.768 229.099,250.625 229.271 C 250.482 229.443,250.164 229.583,249.917 229.583 C 249.670 229.583,249.307 229.771,249.111 230.000 C 248.915 230.229,248.589 230.420,248.387 230.423 C 248.186 230.427,247.839 230.568,247.616 230.736 C 247.394 230.904,247.052 231.042,246.857 231.042 C 246.662 231.042,246.449 231.182,246.383 231.354 C 246.317 231.526,246.085 231.667,245.868 231.667 C 245.651 231.667,245.234 231.854,244.943 232.083 C 244.652 232.313,244.217 232.500,243.978 232.500 C 243.729 232.500,243.542 232.634,243.542 232.813 C 243.542 233.004,243.347 233.125,243.036 233.125 C 242.757 233.125,242.389 233.266,242.217 233.438 C 242.045 233.609,241.770 233.750,241.605 233.750 C 241.441 233.750,241.068 233.938,240.776 234.167 C 240.485 234.396,240.048 234.583,239.804 234.583 C 239.561 234.583,239.308 234.724,239.242 234.896 C 239.176 235.068,238.904 235.208,238.638 235.208 C 238.372 235.208,238.026 235.338,237.868 235.495 C 237.710 235.653,237.288 235.847,236.930 235.925 C 236.572 236.004,236.167 236.203,236.031 236.368 C 235.894 236.532,235.571 236.667,235.313 236.667 C 235.054 236.667,234.734 236.797,234.601 236.957 C 234.469 237.117,234.044 237.307,233.659 237.380 C 233.273 237.452,232.904 237.649,232.839 237.818 C 232.774 237.987,232.489 238.125,232.204 238.125 C 231.920 238.125,231.612 238.251,231.521 238.406 C 231.429 238.560,230.987 238.745,230.538 238.815 C 230.089 238.886,229.666 239.033,229.598 239.143 C 229.530 239.252,229.196 239.412,228.854 239.498 C 228.513 239.583,228.108 239.778,227.956 239.931 C 227.803 240.084,227.458 240.208,227.188 240.208 C 226.917 240.208,226.556 240.349,226.384 240.521 C 226.212 240.693,225.899 240.833,225.689 240.833 C 225.478 240.833,224.956 241.021,224.529 241.250 C 224.101 241.479,223.561 241.667,223.328 241.667 C 223.094 241.667,222.850 241.807,222.784 241.979 C 222.709 242.173,222.392 242.292,221.950 242.292 C 221.525 242.292,221.191 242.412,221.123 242.589 C 221.060 242.752,220.649 242.946,220.208 243.021 C 219.768 243.095,219.356 243.290,219.294 243.453 C 219.231 243.616,218.913 243.750,218.588 243.750 C 218.263 243.750,217.814 243.888,217.592 244.056 C 217.369 244.224,216.991 244.365,216.751 244.368 C 216.510 244.372,216.098 244.563,215.833 244.792 C 215.569 245.021,215.097 245.208,214.785 245.208 C 214.473 245.208,214.111 245.337,213.981 245.494 C 213.850 245.651,213.354 245.832,212.878 245.895 C 212.402 245.959,211.930 246.159,211.829 246.339 C 211.728 246.519,211.381 246.667,211.057 246.667 C 210.733 246.667,210.351 246.807,210.208 246.979 C 210.066 247.151,209.671 247.292,209.330 247.292 C 208.990 247.292,208.473 247.479,208.182 247.708 C 207.891 247.938,207.377 248.125,207.040 248.125 C 206.704 248.125,206.288 248.266,206.116 248.438 C 205.944 248.609,205.536 248.750,205.208 248.750 C 204.881 248.750,204.472 248.891,204.301 249.063 C 204.129 249.234,203.707 249.375,203.363 249.375 C 203.019 249.375,202.613 249.500,202.460 249.654 C 202.306 249.807,201.768 249.987,201.264 250.055 C 200.751 250.124,200.265 250.323,200.163 250.506 C 200.046 250.715,199.690 250.833,199.182 250.833 C 198.727 250.833,198.273 250.968,198.125 251.146 C 197.982 251.318,197.562 251.458,197.190 251.458 C 196.819 251.458,196.276 251.646,195.985 251.875 C 195.632 252.153,195.140 252.292,194.509 252.292 C 193.934 252.292,193.497 252.402,193.396 252.574 C 193.304 252.729,192.817 252.909,192.314 252.974 C 191.810 253.040,191.341 253.181,191.272 253.289 C 191.203 253.396,190.677 253.553,190.104 253.637 C 189.531 253.722,189.009 253.878,188.943 253.984 C 188.877 254.091,188.338 254.235,187.746 254.305 C 187.154 254.375,186.564 254.560,186.434 254.716 C 186.305 254.872,185.812 255.001,185.339 255.001 C 184.832 255.002,184.223 255.172,183.854 255.417 C 183.476 255.667,182.877 255.831,182.337 255.832 C 181.738 255.833,181.406 255.936,181.325 256.146 C 181.238 256.374,180.880 256.458,180.003 256.458 C 179.238 256.458,178.715 256.562,178.564 256.744 C 178.433 256.902,177.760 257.094,177.069 257.173 C 176.268 257.263,175.769 257.424,175.696 257.616 C 175.612 257.834,175.219 257.917,174.259 257.917 C 173.371 257.917,172.883 258.009,172.771 258.198 C 172.679 258.353,172.102 258.537,171.488 258.607 C 170.875 258.678,170.265 258.822,170.134 258.928 C 170.003 259.034,169.314 259.186,168.603 259.267 C 167.892 259.348,167.201 259.546,167.067 259.707 C 166.911 259.896,166.404 260.000,165.646 260.000 C 164.997 260.000,164.283 260.127,164.057 260.282 C 163.831 260.437,162.955 260.620,162.111 260.689 C 161.170 260.765,160.438 260.938,160.219 261.136 C 159.990 261.343,159.459 261.459,158.734 261.460 C 158.112 261.460,157.336 261.601,157.007 261.772 C 156.651 261.958,155.847 262.083,155.008 262.083 C 153.871 262.083,153.535 262.162,153.229 262.500 C 152.918 262.843,152.588 262.917,151.347 262.917 C 150.264 262.917,149.770 263.004,149.583 263.229 C 149.389 263.463,148.868 263.542,147.507 263.542 C 145.954 263.542,145.635 263.602,145.313 263.958 C 144.983 264.323,144.671 264.375,142.822 264.375 C 141.522 264.375,140.617 264.466,140.472 264.612 C 140.342 264.742,139.315 264.893,138.190 264.949 C 136.692 265.022,135.972 265.154,135.496 265.441 C 134.968 265.760,134.432 265.833,132.632 265.833 C 131.413 265.833,130.417 265.917,130.417 266.020 C 130.417 266.123,129.052 266.275,127.385 266.358 C 125.425 266.456,124.261 266.602,124.093 266.770 C 123.912 266.951,122.689 267.057,120.042 267.119 C 117.480 267.180,116.169 267.290,116.000 267.459 C 115.821 267.637,114.495 267.709,111.365 267.709 C 105.708 267.710,99.079 267.942,99.381 268.129 C 99.919 268.461,97.793 268.542,88.438 268.542 C 79.054 268.542,77.181 268.472,77.391 268.132 C 77.516 267.931,71.408 267.710,65.719 267.709 C 62.426 267.709,61.054 267.638,60.875 267.459 C 60.706 267.289,59.398 267.181,56.823 267.123 C 54.134 267.063,52.929 266.959,52.708 266.770 C 52.506 266.597,51.346 266.450,49.427 266.353 C 47.794 266.271,46.458 266.120,46.458 266.018 C 46.458 265.917,45.462 265.833,44.243 265.833 C 42.447 265.833,41.906 265.759,41.379 265.443 C 40.913 265.162,40.160 265.020,38.718 264.940 C 37.611 264.878,36.516 264.726,36.283 264.601 C 36.051 264.477,34.978 264.375,33.900 264.375 C 32.204 264.375,31.889 264.319,31.563 263.958 C 31.242 263.605,30.921 263.542,29.432 263.542 C 28.151 263.542,27.594 263.457,27.366 263.229 C 27.146 263.009,26.607 262.917,25.538 262.917 C 24.287 262.917,23.957 262.844,23.646 262.500 C 23.338 262.159,22.999 262.082,21.791 262.077 C 20.822 262.072,20.173 261.965,19.908 261.764 C 19.657 261.574,19.031 261.458,18.258 261.458 C 17.425 261.458,16.894 261.351,16.656 261.136 C 16.437 260.938,15.703 260.765,14.764 260.688 C 13.920 260.619,13.165 260.464,13.087 260.344 C 13.009 260.224,12.311 260.085,11.535 260.036 C 10.759 259.987,10.006 259.827,9.860 259.682 C 9.715 259.536,9.007 259.351,8.288 259.269 C 7.568 259.187,6.868 259.031,6.733 258.922 C 6.598 258.812,5.957 258.668,5.308 258.601 C 4.605 258.529,4.086 258.366,4.022 258.198 C 3.947 258.003,3.512 257.917,2.604 257.917 C 1.632 257.917,1.264 257.836,1.175 257.604 C 1.109 257.432,0.817 257.292,0.527 257.292 L 0.000 257.292 0.000 264.063 L 0.000 270.833 199.792 270.833 L 399.583 270.833 399.583 177.188 C 399.583 125.682,399.534 83.542,399.474 83.542 C 399.414 83.542,399.283 83.756,399.183 84.019 " stroke="none" fill="#000000" fill-rule="evenodd"></path></g></svg>