<svg id="svg" xmlns="http://www.w3.org/2000/svg" xmlns:xlink="http://www.w3.org/1999/xlink" width="400" height="270.8333333333333" viewBox="0, 0, 400,270.8333333333333"><g id="svgg"><path id="path0" d="M0.000 68.229 C 0.000 135.034,0.008 136.458,0.394 136.458 C 0.611 136.458,0.843 136.599,0.909 136.771 C 0.980 136.956,1.293 137.083,1.675 137.083 C 2.031 137.083,2.462 137.224,2.634 137.396 C 2.806 137.568,3.213 137.708,3.539 137.708 C 3.865 137.708,4.165 137.806,4.204 137.926 C 4.265 138.107,4.770 138.241,5.689 138.319 C 5.782 138.327,5.800 138.427,5.729 138.542 C 5.652 138.667,5.932 138.750,6.436 138.750 C 6.942 138.750,7.337 138.867,7.438 139.047 C 7.529 139.210,7.979 139.374,8.438 139.412 C 8.966 139.454,9.252 139.574,9.219 139.740 C 9.183 139.917,9.465 140.000,10.104 140.000 C 10.799 140.000,11.042 140.081,11.042 140.313 C 11.042 140.544,11.285 140.625,11.979 140.625 C 12.674 140.625,12.917 140.706,12.917 140.938 C 12.917 141.169,13.160 141.250,13.854 141.250 C 14.549 141.250,14.792 141.331,14.792 141.563 C 14.792 141.794,15.035 141.875,15.729 141.875 C 16.408 141.875,16.667 141.958,16.667 142.176 C 16.667 142.387,16.961 142.496,17.656 142.541 C 18.201 142.576,18.621 142.698,18.590 142.813 C 18.559 142.927,19.075 143.068,19.736 143.125 C 20.544 143.195,20.920 143.314,20.885 143.490 C 20.849 143.670,21.153 143.750,21.875 143.750 C 22.662 143.750,22.917 143.826,22.917 144.063 C 22.917 144.302,23.183 144.375,24.063 144.375 C 24.942 144.375,25.208 144.448,25.208 144.688 C 25.208 144.923,25.460 145.000,26.228 145.000 C 26.942 145.000,27.283 145.094,27.367 145.313 C 27.451 145.532,27.793 145.625,28.513 145.625 C 29.233 145.625,29.575 145.718,29.659 145.938 C 29.745 146.162,30.096 146.250,30.909 146.250 C 31.721 146.250,32.072 146.338,32.159 146.563 C 32.247 146.792,32.608 146.875,33.513 146.875 C 34.418 146.875,34.779 146.958,34.867 147.188 C 34.954 147.414,35.309 147.500,36.154 147.500 C 36.914 147.500,37.431 147.609,37.634 147.813 C 37.834 148.012,38.348 148.125,39.060 148.125 C 39.745 148.125,40.206 148.222,40.257 148.376 C 40.309 148.532,40.933 148.661,41.889 148.714 C 42.741 148.761,43.495 148.891,43.565 149.001 C 43.635 149.112,44.453 149.254,45.382 149.318 C 46.311 149.382,47.022 149.514,46.961 149.613 C 46.900 149.711,47.500 149.792,48.295 149.792 C 49.988 149.792,51.081 149.976,50.922 150.234 C 50.860 150.334,51.603 150.417,52.575 150.417 C 54.421 150.417,55.076 150.541,54.882 150.855 C 54.817 150.960,55.685 151.042,56.869 151.042 C 58.546 151.042,58.996 151.105,59.091 151.354 C 59.188 151.605,59.654 151.667,61.464 151.667 C 63.767 151.667,64.461 151.776,64.257 152.105 C 64.191 152.212,65.522 152.292,67.366 152.292 C 70.591 152.292,71.349 152.380,71.132 152.730 C 71.066 152.838,72.911 152.917,75.491 152.917 C 79.954 152.917,80.939 153.006,80.382 153.359 C 80.228 153.457,84.196 153.535,89.271 153.535 C 94.346 153.535,98.313 153.457,98.160 153.359 C 97.600 153.005,98.594 152.917,103.194 152.913 C 105.792 152.912,107.691 152.833,107.535 152.734 C 107.002 152.397,107.894 152.292,111.319 152.288 C 113.236 152.287,114.568 152.209,114.410 152.109 C 113.910 151.793,114.706 151.667,117.205 151.667 C 118.996 151.667,119.570 151.602,119.531 151.406 C 119.493 151.217,120.075 151.114,121.667 151.030 C 122.870 150.967,123.760 150.895,123.646 150.871 C 122.913 150.716,124.361 150.423,125.868 150.420 C 127.125 150.418,127.700 150.338,127.760 150.156 C 127.819 149.981,128.469 149.872,129.756 149.823 C 130.806 149.783,131.622 149.679,131.568 149.592 C 131.514 149.505,132.230 149.382,133.160 149.318 C 134.089 149.254,134.907 149.112,134.977 149.001 C 135.047 148.891,135.801 148.761,136.652 148.714 C 137.608 148.661,138.232 148.532,138.284 148.376 C 138.336 148.222,138.797 148.125,139.482 148.125 C 140.194 148.125,140.708 148.012,140.908 147.812 C 141.111 147.609,141.628 147.500,142.387 147.500 C 143.233 147.500,143.588 147.414,143.675 147.188 C 143.763 146.958,144.124 146.875,145.029 146.875 C 145.934 146.875,146.295 146.792,146.383 146.563 C 146.469 146.338,146.821 146.250,147.633 146.250 C 148.445 146.250,148.797 146.162,148.883 145.938 C 148.967 145.718,149.309 145.625,150.029 145.625 C 150.749 145.625,151.091 145.532,151.175 145.312 C 151.259 145.094,151.600 145.000,152.314 145.000 C 153.081 145.000,153.333 144.923,153.333 144.688 C 153.333 144.448,153.597 144.375,154.457 144.375 C 155.263 144.375,155.614 144.287,155.700 144.063 C 155.783 143.848,156.117 143.750,156.764 143.750 C 157.465 143.750,157.708 143.669,157.708 143.438 C 157.708 143.198,157.975 143.125,158.854 143.125 C 159.660 143.125,159.985 143.048,159.948 142.865 C 159.913 142.692,160.230 142.583,160.885 142.541 C 161.580 142.496,161.875 142.387,161.875 142.176 C 161.875 141.958,162.134 141.875,162.813 141.875 C 163.507 141.875,163.750 141.794,163.750 141.563 C 163.750 141.331,163.993 141.250,164.688 141.250 C 165.382 141.250,165.625 141.169,165.625 140.938 C 165.625 140.706,165.868 140.625,166.563 140.625 C 167.257 140.625,167.500 140.544,167.500 140.313 C 167.500 140.081,167.743 140.000,168.438 140.000 C 169.076 140.000,169.358 139.917,169.323 139.740 C 169.290 139.574,169.575 139.454,170.104 139.412 C 170.563 139.374,171.012 139.210,171.104 139.047 C 171.203 138.870,171.596 138.750,172.076 138.750 C 172.519 138.750,172.915 138.651,172.955 138.530 C 173.027 138.314,173.492 138.172,174.231 138.141 C 174.438 138.132,174.550 138.031,174.479 137.917 C 174.404 137.796,174.611 137.708,174.973 137.708 C 175.315 137.708,175.736 137.568,175.908 137.396 C 176.080 137.224,176.454 137.083,176.739 137.083 C 177.434 137.083,177.941 136.874,177.799 136.645 C 177.736 136.542,178.020 136.458,178.432 136.458 C 178.904 136.458,179.224 136.343,179.300 136.146 C 179.374 135.953,179.690 135.833,180.126 135.833 C 180.616 135.833,180.833 135.737,180.833 135.521 C 180.833 135.303,181.053 135.208,181.563 135.208 C 182.072 135.208,182.292 135.114,182.292 134.896 C 182.292 134.677,182.512 134.583,183.027 134.583 C 183.489 134.583,183.808 134.467,183.883 134.271 C 183.951 134.093,184.262 133.958,184.606 133.958 C 185.002 133.958,185.208 133.852,185.208 133.646 C 185.208 133.428,185.428 133.333,185.938 133.333 C 186.447 133.333,186.667 133.239,186.667 133.021 C 186.667 132.804,186.884 132.708,187.374 132.708 C 187.810 132.708,188.126 132.589,188.200 132.396 C 188.270 132.213,188.583 132.083,188.952 132.083 C 189.374 132.083,189.583 131.980,189.583 131.771 C 189.583 131.563,189.792 131.458,190.208 131.458 C 190.625 131.458,190.833 131.354,190.833 131.146 C 190.833 130.928,191.053 130.833,191.563 130.833 C 192.031 130.833,192.273 130.741,192.240 130.576 C 192.208 130.421,192.521 130.266,193.021 130.189 C 193.479 130.117,193.760 130.044,193.646 130.026 C 193.290 129.970,194.037 129.590,194.509 129.587 C 194.755 129.585,195.009 129.443,195.075 129.271 C 195.141 129.099,195.423 128.958,195.700 128.958 C 195.978 128.958,196.259 128.818,196.325 128.646 C 196.391 128.474,196.673 128.333,196.950 128.333 C 197.228 128.333,197.509 128.193,197.575 128.021 C 197.641 127.849,197.923 127.708,198.200 127.708 C 198.478 127.708,198.763 127.558,198.834 127.374 C 198.905 127.187,199.096 127.092,199.267 127.157 C 199.434 127.221,199.726 127.119,199.915 126.930 C 200.105 126.740,200.444 126.572,200.670 126.555 C 200.895 126.539,201.142 126.431,201.217 126.315 C 201.292 126.200,201.612 126.043,201.927 125.966 C 202.242 125.888,202.500 125.733,202.500 125.621 C 202.500 125.509,202.690 125.417,202.923 125.417 C 203.156 125.417,203.400 125.276,203.466 125.104 C 203.532 124.932,203.814 124.792,204.091 124.792 C 204.369 124.792,204.650 124.651,204.716 124.479 C 204.782 124.307,205.017 124.167,205.237 124.167 C 205.458 124.167,205.692 124.026,205.758 123.854 C 205.824 123.682,206.055 123.542,206.272 123.542 C 206.489 123.542,206.667 123.401,206.667 123.229 C 206.667 123.021,206.875 122.917,207.292 122.917 C 207.708 122.917,207.917 122.813,207.917 122.604 C 207.917 122.396,208.125 122.292,208.542 122.292 C 208.958 122.292,209.167 122.188,209.167 121.979 C 209.167 121.788,209.361 121.667,209.665 121.667 C 209.939 121.667,210.218 121.526,210.284 121.354 C 210.350 121.182,210.594 121.042,210.827 121.042 C 211.064 121.042,211.250 120.904,211.250 120.729 C 211.250 120.535,211.447 120.417,211.771 120.417 C 212.095 120.417,212.292 120.299,212.292 120.104 C 212.292 119.896,212.500 119.792,212.917 119.792 C 213.290 119.792,213.521 119.692,213.490 119.544 C 213.461 119.407,213.618 119.256,213.839 119.209 C 214.060 119.161,214.372 118.991,214.531 118.832 C 214.691 118.672,214.955 118.542,215.119 118.542 C 215.283 118.542,215.393 118.427,215.365 118.286 C 215.336 118.146,215.547 117.996,215.833 117.954 C 216.120 117.911,216.429 117.745,216.521 117.584 C 216.612 117.423,216.827 117.292,216.998 117.292 C 217.321 117.292,217.699 117.032,218.290 116.406 C 218.479 116.206,218.805 116.042,219.015 116.042 C 219.224 116.042,219.612 115.807,219.878 115.521 C 220.143 115.234,220.563 115.000,220.812 115.000 C 221.060 115.000,221.314 114.868,221.376 114.706 C 221.438 114.545,221.716 114.355,221.994 114.286 C 222.272 114.216,222.500 114.067,222.500 113.954 C 222.500 113.842,222.644 113.750,222.819 113.750 C 222.995 113.750,223.192 113.609,223.258 113.438 C 223.324 113.266,223.559 113.125,223.779 113.125 C 224.000 113.125,224.456 112.844,224.792 112.500 C 225.128 112.156,225.550 111.875,225.729 111.875 C 225.909 111.875,226.331 111.594,226.667 111.250 C 227.003 110.906,227.468 110.625,227.701 110.625 C 227.939 110.625,228.125 110.488,228.125 110.313 C 228.125 110.141,228.256 110.000,228.415 110.000 C 228.575 110.000,228.759 109.859,228.825 109.687 C 228.891 109.516,229.126 109.375,229.346 109.375 C 229.567 109.375,229.801 109.234,229.867 109.063 C 229.933 108.891,230.107 108.746,230.254 108.741 C 230.401 108.736,230.751 108.455,231.032 108.116 C 231.327 107.761,231.745 107.500,232.021 107.500 C 232.308 107.500,232.500 107.375,232.500 107.188 C 232.500 107.016,232.631 106.875,232.790 106.875 C 232.950 106.875,233.134 106.734,233.200 106.563 C 233.266 106.391,233.464 106.250,233.639 106.250 C 233.815 106.250,233.958 106.163,233.958 106.056 C 233.958 105.949,234.165 105.796,234.418 105.715 C 234.671 105.635,235.114 105.301,235.402 104.972 C 235.690 104.644,236.047 104.375,236.194 104.375 C 236.459 104.375,237.220 103.767,238.346 102.656 C 238.665 102.341,239.055 102.083,239.212 102.083 C 239.370 102.083,239.729 101.806,240.010 101.467 C 240.291 101.128,240.638 100.847,240.781 100.842 C 240.924 100.837,241.042 100.693,241.042 100.521 C 241.042 100.349,241.218 100.208,241.433 100.208 C 241.648 100.208,241.941 100.068,242.083 99.896 C 242.226 99.724,242.472 99.583,242.630 99.583 C 242.788 99.583,242.917 99.443,242.917 99.271 C 242.917 99.099,243.057 98.958,243.229 98.958 C 243.401 98.958,243.542 98.818,243.542 98.646 C 243.542 98.474,243.682 98.333,243.854 98.333 C 244.026 98.333,244.167 98.193,244.167 98.021 C 244.167 97.824,244.365 97.708,244.700 97.708 C 244.993 97.708,245.177 97.617,245.108 97.506 C 245.039 97.395,245.221 97.244,245.512 97.171 C 245.803 97.098,246.042 96.908,246.042 96.748 C 246.042 96.589,246.182 96.458,246.354 96.458 C 246.526 96.458,246.667 96.318,246.667 96.146 C 246.667 95.974,246.807 95.833,246.979 95.833 C 247.151 95.833,247.292 95.693,247.292 95.521 C 247.292 95.349,247.422 95.208,247.582 95.208 C 247.741 95.208,247.926 95.068,247.992 94.896 C 248.058 94.724,248.247 94.583,248.412 94.583 C 248.577 94.583,249.518 93.786,250.503 92.812 C 251.488 91.839,252.411 91.042,252.554 91.042 C 252.696 91.042,253.266 90.620,253.820 90.104 C 254.374 89.589,254.913 89.167,255.018 89.167 C 255.122 89.167,255.208 89.026,255.208 88.854 C 255.208 88.682,255.349 88.542,255.521 88.542 C 255.693 88.542,255.833 88.401,255.833 88.229 C 255.833 88.057,255.974 87.917,256.146 87.917 C 256.318 87.917,256.458 87.776,256.458 87.604 C 256.458 87.432,256.599 87.292,256.771 87.292 C 256.943 87.292,257.083 87.151,257.083 86.979 C 257.083 86.807,257.214 86.667,257.374 86.667 C 257.533 86.667,257.718 86.526,257.784 86.354 C 257.850 86.182,258.004 86.042,258.127 86.042 C 258.444 86.042,258.530 85.961,262.975 81.516 C 267.378 77.113,267.357 77.136,267.556 76.615 C 267.633 76.414,267.792 76.250,267.910 76.250 C 268.028 76.250,268.125 76.109,268.125 75.938 C 268.125 75.766,268.266 75.625,268.438 75.625 C 268.609 75.625,268.750 75.484,268.750 75.313 C 268.750 75.141,268.891 75.000,269.063 75.000 C 269.234 75.000,269.375 74.859,269.375 74.688 C 269.375 74.516,269.516 74.375,269.688 74.375 C 269.859 74.375,270.000 74.234,270.000 74.063 C 270.000 73.891,270.141 73.750,270.313 73.750 C 270.484 73.750,270.625 73.609,270.625 73.438 C 270.625 73.266,270.766 73.125,270.938 73.125 C 271.109 73.125,271.250 73.037,271.250 72.930 C 271.250 72.822,271.531 72.426,271.875 72.050 C 272.219 71.673,272.500 71.199,272.500 70.995 C 272.500 70.792,272.641 70.625,272.813 70.625 C 272.984 70.625,273.125 70.538,273.125 70.431 C 273.125 70.325,273.828 69.518,274.687 68.639 C 275.547 67.760,276.250 66.910,276.250 66.749 C 276.250 66.589,276.344 66.458,276.458 66.458 C 276.573 66.458,276.667 66.318,276.667 66.146 C 276.667 65.974,276.807 65.833,276.979 65.833 C 277.151 65.833,277.292 65.693,277.292 65.521 C 277.292 65.349,277.432 65.208,277.604 65.208 C 277.776 65.208,277.917 65.089,277.917 64.942 C 277.917 64.796,278.081 64.521,278.281 64.332 C 278.911 63.737,279.167 63.362,279.167 63.030 C 279.167 62.853,279.307 62.708,279.479 62.708 C 279.651 62.708,279.792 62.568,279.792 62.396 C 279.792 62.224,279.932 62.083,280.104 62.083 C 280.276 62.083,280.417 61.943,280.417 61.771 C 280.417 61.599,280.547 61.458,280.707 61.458 C 280.866 61.458,281.056 61.220,281.129 60.929 C 281.202 60.638,281.353 60.456,281.464 60.525 C 281.576 60.593,281.667 60.410,281.667 60.116 C 281.667 59.781,281.783 59.583,281.979 59.583 C 282.151 59.583,282.292 59.443,282.292 59.271 C 282.292 59.099,282.432 58.958,282.604 58.958 C 282.776 58.958,282.917 58.828,282.917 58.668 C 282.917 58.509,283.057 58.324,283.229 58.258 C 283.401 58.192,283.542 57.948,283.542 57.715 C 283.542 57.478,283.679 57.292,283.854 57.292 C 284.026 57.292,284.168 57.174,284.170 57.031 C 284.172 56.888,284.588 56.309,285.095 55.744 C 285.602 55.180,285.999 54.658,285.977 54.585 C 285.955 54.512,286.242 54.147,286.615 53.773 C 286.987 53.399,287.292 52.960,287.292 52.796 C 287.292 52.633,287.385 52.500,287.500 52.500 C 287.615 52.500,287.708 52.378,287.708 52.230 C 287.708 52.081,287.986 51.730,288.325 51.449 C 288.663 51.167,288.945 50.747,288.950 50.515 C 288.954 50.283,289.227 49.857,289.556 49.569 C 289.884 49.280,290.219 48.836,290.300 48.582 C 290.381 48.327,290.534 48.173,290.640 48.238 C 290.746 48.304,290.833 48.162,290.833 47.922 C 290.833 47.683,290.974 47.433,291.146 47.367 C 291.318 47.301,291.458 47.116,291.458 46.957 C 291.458 46.797,291.599 46.667,291.771 46.667 C 291.958 46.667,292.083 46.475,292.083 46.188 C 292.083 45.912,292.344 45.493,292.700 45.199 C 293.038 44.917,293.320 44.477,293.325 44.219 C 293.330 43.945,293.463 43.750,293.646 43.750 C 293.818 43.750,293.958 43.606,293.958 43.431 C 293.958 43.255,294.099 43.058,294.271 42.992 C 294.443 42.926,294.583 42.658,294.583 42.396 C 294.583 42.134,294.724 41.866,294.896 41.800 C 295.068 41.734,295.208 41.546,295.208 41.383 C 295.208 41.220,295.349 41.032,295.521 40.966 C 295.693 40.900,295.833 40.666,295.833 40.445 C 295.833 40.225,295.974 39.991,296.146 39.925 C 296.318 39.859,296.458 39.618,296.458 39.389 C 296.458 39.160,296.740 38.685,297.083 38.333 C 297.427 37.982,297.708 37.520,297.708 37.307 C 297.708 37.094,297.849 36.866,298.021 36.800 C 298.193 36.734,298.333 36.536,298.333 36.361 C 298.333 36.185,298.427 36.042,298.542 36.042 C 298.656 36.042,298.750 35.851,298.750 35.618 C 298.750 35.386,298.891 35.141,299.063 35.075 C 299.234 35.009,299.375 34.752,299.375 34.503 C 299.375 34.254,299.539 33.896,299.740 33.707 C 300.372 33.109,300.625 32.736,300.625 32.398 C 300.625 32.218,300.766 32.016,300.938 31.950 C 301.109 31.884,301.250 31.606,301.250 31.332 C 301.250 31.048,301.373 30.833,301.536 30.833 C 301.694 30.833,301.880 30.546,301.951 30.195 C 302.021 29.843,302.167 29.610,302.274 29.677 C 302.382 29.743,302.503 29.586,302.542 29.326 C 302.582 29.066,302.729 28.878,302.870 28.906 C 303.026 28.938,303.125 28.716,303.125 28.333 C 303.125 27.917,303.229 27.708,303.438 27.708 C 303.646 27.708,303.750 27.500,303.750 27.083 C 303.750 26.667,303.854 26.458,304.063 26.458 C 304.271 26.458,304.375 26.250,304.375 25.833 C 304.375 25.417,304.479 25.208,304.688 25.208 C 304.861 25.208,305.000 25.023,305.000 24.792 C 305.000 24.560,305.139 24.375,305.313 24.375 C 305.503 24.375,305.625 24.181,305.625 23.876 C 305.625 23.602,305.766 23.324,305.938 23.258 C 306.109 23.192,306.250 22.901,306.250 22.611 C 306.250 22.281,306.367 22.083,306.563 22.083 C 306.771 22.083,306.875 21.875,306.875 21.458 C 306.875 21.042,306.979 20.833,307.188 20.833 C 307.378 20.833,307.500 20.639,307.500 20.335 C 307.500 20.061,307.641 19.782,307.813 19.716 C 307.984 19.650,308.125 19.369,308.125 19.091 C 308.125 18.814,308.266 18.532,308.438 18.466 C 308.609 18.400,308.750 18.119,308.750 17.841 C 308.750 17.564,308.891 17.282,309.063 17.216 C 309.234 17.150,309.375 16.899,309.375 16.658 C 309.375 16.417,309.516 16.080,309.688 15.908 C 309.859 15.736,310.000 15.414,310.000 15.193 C 310.000 14.972,310.094 14.792,310.208 14.792 C 310.323 14.792,310.417 14.554,310.417 14.264 C 310.417 13.974,310.557 13.683,310.729 13.617 C 310.901 13.551,311.042 13.327,311.042 13.120 C 311.042 12.578,311.266 12.069,311.454 12.185 C 311.542 12.239,311.675 11.906,311.749 11.445 C 311.823 10.983,311.969 10.659,312.075 10.724 C 312.180 10.789,312.295 10.489,312.331 10.056 C 312.367 9.624,312.490 9.298,312.604 9.331 C 312.719 9.364,312.862 9.083,312.923 8.706 C 312.986 8.321,313.145 8.044,313.288 8.073 C 313.442 8.105,313.542 7.883,313.542 7.510 C 313.542 7.172,313.675 6.821,313.838 6.729 C 314.000 6.637,314.164 6.234,314.202 5.833 C 314.244 5.388,314.372 5.124,314.531 5.156 C 314.700 5.190,314.792 4.951,314.792 4.479 C 314.792 3.970,314.886 3.750,315.104 3.750 C 315.313 3.750,315.417 3.542,315.417 3.125 C 315.417 2.708,315.521 2.500,315.729 2.500 C 315.955 2.500,316.042 2.269,316.042 1.667 C 316.042 1.065,316.128 0.833,316.354 0.833 C 316.528 0.833,316.667 0.648,316.667 0.417 C 316.667 0.000,316.528 0.000,158.333 0.000 L 0.000 0.000 0.000 68.229 M399.792 156.361 C 399.792 156.536,399.651 156.734,399.479 156.800 C 399.307 156.866,399.167 157.048,399.167 157.204 C 399.167 157.361,398.605 158.064,397.918 158.766 C 397.230 159.468,396.723 160.132,396.791 160.240 C 396.858 160.349,396.201 161.138,395.331 161.994 C 394.418 162.893,393.750 163.724,393.750 163.962 C 393.750 164.190,393.610 164.375,393.438 164.375 C 393.266 164.375,393.125 164.516,393.125 164.688 C 393.125 164.859,392.984 165.000,392.813 165.000 C 392.641 165.000,392.500 165.141,392.500 165.313 C 392.500 165.484,392.359 165.625,392.188 165.625 C 392.016 165.625,391.875 165.766,391.875 165.938 C 391.875 166.109,391.734 166.250,391.563 166.250 C 391.391 166.250,391.250 166.338,391.250 166.445 C 391.250 166.553,390.969 166.949,390.625 167.325 C 390.281 167.702,390.000 168.176,390.000 168.380 C 390.000 168.583,389.859 168.750,389.688 168.750 C 389.516 168.750,389.375 168.891,389.375 169.063 C 389.375 169.234,389.234 169.375,389.063 169.375 C 388.891 169.375,388.750 169.468,388.750 169.581 C 388.750 169.694,388.047 170.501,387.188 171.374 C 386.328 172.248,385.625 173.093,385.625 173.252 C 385.625 173.411,385.531 173.542,385.417 173.542 C 385.302 173.542,385.208 173.682,385.208 173.854 C 385.208 174.026,385.068 174.167,384.896 174.167 C 384.724 174.167,384.583 174.307,384.583 174.479 C 384.583 174.651,384.443 174.792,384.271 174.792 C 384.099 174.792,383.958 174.932,383.958 175.104 C 383.958 175.276,383.818 175.417,383.646 175.417 C 383.474 175.417,383.333 175.557,383.333 175.729 C 383.333 175.901,383.193 176.042,383.021 176.042 C 382.849 176.042,382.708 176.182,382.708 176.354 C 382.708 176.526,382.568 176.667,382.396 176.667 C 382.224 176.667,382.083 176.807,382.083 176.979 C 382.083 177.151,381.943 177.292,381.771 177.292 C 381.599 177.292,381.458 177.432,381.458 177.604 C 381.458 177.776,381.318 177.917,381.146 177.917 C 380.974 177.917,380.833 178.000,380.833 178.102 C 380.833 178.204,380.272 178.884,379.585 179.613 C 378.898 180.341,378.336 181.055,378.335 181.198 C 378.334 181.341,378.193 181.458,378.021 181.458 C 377.849 181.458,377.708 181.548,377.708 181.658 C 377.708 181.767,377.335 182.259,376.878 182.751 C 376.421 183.243,376.046 183.716,376.044 183.802 C 376.043 183.888,375.901 183.958,375.729 183.958 C 375.557 183.958,375.417 184.099,375.417 184.271 C 375.417 184.443,375.276 184.583,375.104 184.583 C 374.932 184.583,374.792 184.724,374.792 184.896 C 374.792 185.068,374.651 185.208,374.479 185.208 C 374.307 185.208,374.167 185.349,374.167 185.521 C 374.167 185.693,374.026 185.833,373.854 185.833 C 373.682 185.833,373.542 185.974,373.542 186.146 C 373.542 186.318,373.401 186.458,373.229 186.458 C 373.057 186.458,372.917 186.599,372.917 186.771 C 372.917 186.943,372.776 187.083,372.604 187.083 C 372.432 187.083,372.292 187.224,372.292 187.396 C 372.292 187.568,372.151 187.708,371.979 187.708 C 371.807 187.708,371.667 187.849,371.667 188.021 C 371.667 188.193,371.526 188.333,371.354 188.333 C 371.182 188.333,371.042 188.474,371.042 188.646 C 371.042 188.818,370.901 188.958,370.729 188.958 C 370.557 188.958,370.417 189.099,370.417 189.271 C 370.417 189.443,370.276 189.583,370.104 189.583 C 369.932 189.583,369.792 189.724,369.792 189.896 C 369.792 190.068,369.651 190.208,369.479 190.208 C 369.307 190.208,369.167 190.349,369.167 190.521 C 369.167 190.693,369.026 190.833,368.854 190.833 C 368.682 190.833,368.542 190.974,368.542 191.146 C 368.542 191.318,368.401 191.458,368.229 191.458 C 368.057 191.458,367.917 191.599,367.917 191.771 C 367.917 191.943,367.776 192.083,367.604 192.083 C 367.432 192.083,367.284 192.201,367.275 192.344 C 367.265 192.487,366.757 193.026,366.146 193.542 C 365.534 194.057,365.026 194.596,365.017 194.740 C 365.008 194.883,364.859 195.000,364.688 195.000 C 364.516 195.000,364.375 195.141,364.375 195.313 C 364.375 195.484,364.244 195.625,364.085 195.625 C 363.925 195.625,363.741 195.766,363.675 195.938 C 363.609 196.109,363.411 196.250,363.236 196.250 C 363.060 196.250,362.917 196.391,362.917 196.563 C 362.917 196.734,362.819 196.875,362.700 196.875 C 362.445 196.875,362.217 197.058,360.811 198.385 C 360.235 198.930,359.676 199.375,359.569 199.375 C 359.463 199.375,359.375 199.516,359.375 199.688 C 359.375 199.859,359.234 200.000,359.063 200.000 C 358.891 200.000,358.750 200.141,358.750 200.313 C 358.750 200.484,358.609 200.625,358.438 200.625 C 358.266 200.625,358.125 200.766,358.125 200.938 C 358.125 201.109,357.984 201.250,357.813 201.250 C 357.641 201.250,357.500 201.391,357.500 201.563 C 357.500 201.734,357.359 201.875,357.188 201.875 C 357.016 201.875,356.875 202.016,356.875 202.188 C 356.875 202.359,356.734 202.500,356.563 202.500 C 356.391 202.500,356.250 202.617,356.249 202.760 C 356.249 202.904,355.968 203.208,355.625 203.438 C 355.282 203.667,355.001 203.924,355.001 204.010 C 355.000 204.096,354.883 204.167,354.739 204.167 C 354.596 204.167,354.025 204.589,353.472 205.104 C 352.918 205.620,352.379 206.042,352.274 206.042 C 352.169 206.042,352.083 206.182,352.083 206.354 C 352.083 206.526,351.943 206.667,351.771 206.667 C 351.599 206.667,351.458 206.807,351.458 206.979 C 351.458 207.151,351.318 207.292,351.146 207.292 C 350.974 207.292,350.833 207.432,350.833 207.604 C 350.833 207.776,350.693 207.917,350.521 207.917 C 350.349 207.917,350.208 208.057,350.208 208.229 C 350.208 208.401,350.064 208.542,349.887 208.542 C 349.555 208.542,349.180 208.797,348.585 209.427 C 348.396 209.628,348.121 209.792,347.975 209.792 C 347.828 209.792,347.708 209.932,347.708 210.104 C 347.708 210.276,347.568 210.417,347.396 210.417 C 347.224 210.417,347.083 210.557,347.083 210.729 C 347.083 210.901,346.943 211.042,346.771 211.042 C 346.599 211.042,346.458 211.182,346.458 211.354 C 346.458 211.526,346.318 211.667,346.146 211.667 C 345.974 211.667,345.833 211.807,345.833 211.979 C 345.833 212.151,345.649 212.292,345.424 212.292 C 345.193 212.292,344.384 212.929,343.570 213.750 C 342.776 214.552,341.997 215.208,341.839 215.208 C 341.681 215.208,341.243 215.490,340.867 215.833 C 340.491 216.177,340.095 216.458,339.987 216.458 C 339.880 216.458,339.792 216.599,339.792 216.771 C 339.792 216.943,339.651 217.083,339.479 217.083 C 339.307 217.083,339.167 217.224,339.167 217.396 C 339.167 217.568,338.989 217.708,338.772 217.708 C 338.555 217.708,338.324 217.849,338.258 218.021 C 338.192 218.193,338.005 218.333,337.841 218.333 C 337.678 218.333,337.491 218.474,337.425 218.646 C 337.359 218.818,337.161 218.958,336.986 218.958 C 336.810 218.958,336.667 219.099,336.667 219.271 C 336.667 219.443,336.526 219.583,336.354 219.583 C 336.182 219.583,336.042 219.724,336.042 219.896 C 336.042 220.068,335.897 220.208,335.720 220.208 C 335.368 220.208,335.113 220.395,334.084 221.406 C 333.705 221.779,333.288 222.083,333.156 222.083 C 333.024 222.083,332.940 222.198,332.969 222.339 C 332.997 222.479,332.803 222.627,332.536 222.668 C 332.269 222.708,331.671 223.133,331.207 223.610 C 330.744 224.088,330.286 224.479,330.191 224.479 C 329.946 224.479,329.219 225.004,328.533 225.677 C 328.212 225.992,327.798 226.250,327.614 226.250 C 327.429 226.250,327.225 226.391,327.159 226.563 C 327.093 226.734,326.905 226.875,326.742 226.875 C 326.579 226.875,326.391 227.016,326.325 227.188 C 326.259 227.359,326.075 227.500,325.915 227.500 C 325.756 227.500,325.625 227.641,325.625 227.813 C 325.625 228.007,325.428 228.125,325.104 228.125 C 324.780 228.125,324.583 228.243,324.583 228.438 C 324.583 228.609,324.453 228.750,324.293 228.750 C 324.134 228.750,323.949 228.891,323.883 229.063 C 323.817 229.234,323.620 229.375,323.444 229.375 C 323.269 229.375,323.148 229.492,323.177 229.635 C 323.206 229.782,322.978 229.925,322.656 229.962 C 322.328 229.999,322.083 230.155,322.083 230.326 C 322.083 230.491,321.953 230.625,321.793 230.625 C 321.634 230.625,321.449 230.766,321.383 230.938 C 321.317 231.109,321.083 231.250,320.862 231.250 C 320.642 231.250,320.407 231.391,320.341 231.563 C 320.275 231.734,320.101 231.879,319.954 231.884 C 319.808 231.889,319.458 232.170,319.176 232.509 C 318.895 232.848,318.473 233.129,318.239 233.134 C 318.004 233.139,317.583 233.420,317.301 233.759 C 317.020 234.098,316.665 234.375,316.511 234.375 C 316.221 234.375,315.830 234.648,315.261 235.250 C 315.076 235.444,314.848 235.556,314.753 235.497 C 314.658 235.438,314.524 235.537,314.455 235.716 C 314.387 235.895,314.197 236.042,314.034 236.042 C 313.870 236.042,313.683 236.182,313.617 236.354 C 313.551 236.526,313.364 236.667,313.200 236.667 C 313.037 236.667,312.850 236.807,312.784 236.979 C 312.718 237.151,312.439 237.292,312.165 237.292 C 311.861 237.292,311.667 237.413,311.667 237.604 C 311.667 237.776,311.536 237.917,311.376 237.917 C 311.217 237.917,311.032 238.057,310.966 238.229 C 310.900 238.401,310.609 238.542,310.319 238.542 C 309.989 238.542,309.792 238.659,309.792 238.854 C 309.792 239.026,309.661 239.167,309.501 239.167 C 309.342 239.167,309.157 239.307,309.091 239.479 C 309.025 239.651,308.734 239.792,308.444 239.792 C 308.114 239.792,307.917 239.909,307.917 240.104 C 307.917 240.278,307.731 240.417,307.500 240.417 C 307.271 240.417,307.107 240.534,307.135 240.677 C 307.165 240.824,306.937 240.966,306.615 241.003 C 306.287 241.041,306.042 241.197,306.042 241.368 C 306.042 241.532,305.854 241.667,305.625 241.667 C 305.396 241.667,305.208 241.759,305.208 241.871 C 305.208 241.983,304.977 242.133,304.694 242.204 C 304.412 242.275,304.201 242.439,304.226 242.568 C 304.251 242.697,304.036 242.837,303.750 242.880 C 303.464 242.922,303.154 243.088,303.063 243.249 C 302.971 243.410,302.760 243.542,302.594 243.542 C 302.428 243.542,302.315 243.657,302.344 243.797 C 302.372 243.938,302.172 244.086,301.899 244.128 C 301.625 244.169,301.142 244.487,300.825 244.834 C 300.508 245.182,300.148 245.404,300.025 245.328 C 299.903 245.253,299.639 245.382,299.438 245.616 C 299.238 245.850,298.907 246.042,298.704 246.042 C 298.500 246.042,298.333 246.135,298.333 246.250 C 298.333 246.365,298.190 246.458,298.014 246.458 C 297.839 246.458,297.641 246.599,297.575 246.771 C 297.509 246.943,297.228 247.083,296.950 247.083 C 296.673 247.083,296.391 247.224,296.325 247.396 C 296.259 247.568,296.072 247.708,295.909 247.708 C 295.745 247.708,295.558 247.849,295.492 248.021 C 295.426 248.193,295.192 248.333,294.971 248.333 C 294.751 248.333,294.516 248.474,294.450 248.646 C 294.384 248.818,294.116 248.958,293.854 248.958 C 293.592 248.958,293.324 249.099,293.258 249.271 C 293.192 249.443,293.005 249.583,292.841 249.583 C 292.678 249.583,292.491 249.724,292.425 249.896 C 292.359 250.068,292.124 250.208,291.904 250.208 C 291.683 250.208,291.449 250.349,291.383 250.521 C 291.317 250.693,291.026 250.833,290.736 250.833 C 290.406 250.833,290.208 250.950,290.208 251.146 C 290.208 251.337,290.014 251.458,289.710 251.458 C 289.436 251.458,289.157 251.599,289.091 251.771 C 289.025 251.943,288.838 252.083,288.675 252.083 C 288.511 252.083,288.324 252.224,288.258 252.396 C 288.192 252.568,287.901 252.708,287.611 252.708 C 287.281 252.708,287.083 252.825,287.083 253.021 C 287.083 253.229,286.875 253.333,286.458 253.333 C 286.069 253.333,285.853 253.432,285.885 253.594 C 285.915 253.741,285.686 253.883,285.361 253.920 C 285.044 253.957,284.837 254.071,284.901 254.175 C 284.965 254.278,284.779 254.423,284.488 254.496 C 284.197 254.569,283.958 254.759,283.958 254.918 C 283.958 255.099,283.732 255.208,283.356 255.208 C 283.001 255.208,282.701 255.343,282.628 255.534 C 282.559 255.713,282.416 255.806,282.310 255.740 C 282.204 255.675,281.970 255.768,281.791 255.947 C 281.612 256.126,281.260 256.312,281.009 256.361 C 280.757 256.409,280.498 256.532,280.432 256.634 C 280.366 256.736,280.102 256.885,279.844 256.965 C 279.586 257.046,279.375 257.199,279.375 257.306 C 279.375 257.413,279.188 257.500,278.958 257.500 C 278.727 257.500,278.542 257.639,278.542 257.813 C 278.542 258.021,278.333 258.125,277.917 258.125 C 277.500 258.125,277.292 258.229,277.292 258.438 C 277.292 258.646,277.083 258.750,276.667 258.750 C 276.250 258.750,276.042 258.854,276.042 259.063 C 276.042 259.258,275.844 259.375,275.514 259.375 C 275.224 259.375,274.933 259.516,274.867 259.688 C 274.801 259.859,274.533 260.000,274.271 260.000 C 274.009 260.000,273.741 260.141,273.675 260.313 C 273.609 260.484,273.327 260.625,273.050 260.625 C 272.772 260.625,272.491 260.766,272.425 260.938 C 272.359 261.109,272.067 261.250,271.777 261.250 C 271.447 261.250,271.250 261.367,271.250 261.563 C 271.250 261.771,271.042 261.875,270.625 261.875 C 270.208 261.875,270.000 261.979,270.000 262.188 C 270.000 262.396,269.792 262.500,269.375 262.500 C 268.994 262.500,268.770 262.599,268.802 262.754 C 268.831 262.896,268.554 263.056,268.169 263.118 C 267.792 263.179,267.491 263.323,267.500 263.438 C 267.509 263.552,267.228 263.693,266.875 263.750 C 266.522 263.807,266.241 263.948,266.250 264.063 C 266.259 264.177,265.978 264.318,265.625 264.375 C 265.272 264.432,264.991 264.573,265.000 264.688 C 265.009 264.802,264.728 264.943,264.375 265.000 C 264.022 265.057,263.741 265.198,263.750 265.313 C 263.759 265.427,263.560 265.553,263.308 265.592 C 263.055 265.631,262.717 265.795,262.555 265.956 C 262.394 266.118,262.089 266.250,261.877 266.250 C 261.666 266.250,261.461 266.345,261.423 266.460 C 261.384 266.576,261.119 266.716,260.833 266.771 C 260.548 266.826,260.282 266.966,260.244 267.081 C 260.205 267.197,259.944 267.292,259.664 267.292 C 259.383 267.292,259.100 267.432,259.034 267.604 C 258.968 267.776,258.686 267.917,258.409 267.917 C 258.131 267.917,257.850 268.057,257.784 268.229 C 257.715 268.407,257.405 268.542,257.061 268.542 C 256.664 268.542,256.458 268.648,256.458 268.854 C 256.458 269.063,256.249 269.167,255.827 269.167 C 255.458 269.167,255.145 269.296,255.075 269.479 C 255.007 269.658,254.696 269.792,254.346 269.792 C 253.997 269.792,253.686 269.925,253.617 270.104 C 253.549 270.282,253.238 270.417,252.894 270.417 C 252.563 270.417,252.292 270.510,252.292 270.625 C 252.292 270.763,277.049 270.833,326.146 270.833 L 400.000 270.833 400.000 213.438 C 400.000 181.870,399.953 156.042,399.896 156.042 C 399.839 156.042,399.792 156.185,399.792 156.361 " stroke="none" fill="#000000" fill-rule="evenodd"></path></g></svg>