<svg id="svg" version="1.1" xmlns="http://www.w3.org/2000/svg" xmlns:xlink="http://www.w3.org/1999/xlink" width="400" height="270.8333333333333" viewBox="0, 0, 400,270.8333333333333"><g id="svgg"><path id="path0" d="M282.500 0.521 C 282.500 0.807,282.410 1.042,282.301 1.042 C 282.192 1.042,282.041 1.370,281.965 1.771 C 281.887 2.188,281.705 2.500,281.539 2.500 C 281.359 2.500,281.250 2.727,281.250 3.099 C 281.250 3.429,281.109 3.816,280.938 3.958 C 280.766 4.101,280.625 4.325,280.625 4.456 C 280.625 4.587,280.438 5.044,280.208 5.471 C 279.979 5.899,279.792 6.425,279.792 6.640 C 279.792 6.856,279.651 7.149,279.479 7.292 C 279.307 7.434,279.167 7.753,279.167 8.000 C 279.167 8.247,278.979 8.610,278.750 8.806 C 278.521 9.002,278.333 9.358,278.333 9.596 C 278.333 9.835,278.193 10.170,278.021 10.342 C 277.849 10.514,277.708 10.831,277.708 11.046 C 277.708 11.261,277.591 11.513,277.448 11.604 C 277.305 11.696,276.953 12.226,276.667 12.783 C 276.380 13.340,276.029 13.842,275.885 13.899 C 275.742 13.956,275.625 14.274,275.625 14.606 C 275.625 14.937,275.533 15.208,275.419 15.208 C 275.306 15.208,275.077 15.536,274.909 15.938 C 274.742 16.339,274.506 16.667,274.386 16.667 C 274.265 16.667,274.167 16.948,274.167 17.292 C 274.167 17.685,274.060 17.917,273.878 17.917 C 273.720 17.917,273.529 18.081,273.453 18.281 C 273.219 18.905,272.591 19.939,272.225 20.305 C 272.032 20.497,271.875 20.836,271.875 21.057 C 271.875 21.278,271.781 21.458,271.667 21.458 C 271.552 21.458,271.458 21.584,271.458 21.739 C 271.458 21.893,271.271 22.188,271.042 22.396 C 270.813 22.603,270.625 22.949,270.625 23.164 C 270.625 23.379,270.490 23.607,270.325 23.670 C 270.160 23.733,269.967 24.050,269.896 24.375 C 269.825 24.700,269.631 25.017,269.466 25.080 C 269.302 25.143,269.167 25.329,269.167 25.492 C 269.167 25.655,269.026 25.843,268.854 25.909 C 268.682 25.975,268.542 26.263,268.542 26.549 C 268.542 26.855,268.371 27.160,268.125 27.292 C 267.896 27.414,267.708 27.693,267.708 27.911 C 267.708 28.129,267.434 28.608,267.098 28.975 C 266.763 29.343,266.431 29.872,266.361 30.152 C 266.290 30.433,265.994 30.911,265.702 31.216 C 265.410 31.521,265.076 32.029,264.961 32.344 C 264.845 32.659,264.666 32.917,264.563 32.917 C 264.460 32.917,264.375 33.056,264.375 33.227 C 264.375 33.398,264.188 33.655,263.958 33.798 C 263.729 33.941,263.542 34.209,263.542 34.393 C 263.542 34.577,263.214 35.066,262.813 35.479 C 262.411 35.891,262.083 36.370,262.083 36.542 C 262.083 36.713,261.615 37.351,261.042 37.958 C 260.469 38.565,260.000 39.221,260.000 39.416 C 260.000 39.611,259.883 39.846,259.740 39.938 C 259.363 40.179,257.917 42.013,257.917 42.250 C 257.917 42.361,257.565 42.816,257.135 43.263 C 256.062 44.378,255.000 45.683,255.000 45.887 C 255.000 45.980,254.742 46.310,254.427 46.622 C 253.545 47.492,252.292 49.080,252.292 49.326 C 252.292 49.447,251.841 50.000,251.290 50.554 C 250.739 51.109,249.825 52.158,249.259 52.886 C 248.692 53.614,247.541 54.926,246.699 55.802 C 244.771 57.811,243.046 59.771,242.938 60.077 C 242.833 60.374,234.521 68.664,234.219 68.774 C 233.938 68.875,231.214 71.332,229.338 73.177 C 228.551 73.951,227.849 74.583,227.777 74.583 C 227.612 74.583,225.937 75.925,225.062 76.760 C 223.910 77.856,223.505 78.164,222.561 78.656 C 222.423 78.729,221.861 79.227,221.311 79.765 C 220.762 80.303,219.957 80.961,219.522 81.228 C 219.086 81.494,218.260 82.171,217.685 82.731 C 217.110 83.292,216.516 83.750,216.366 83.750 C 216.216 83.750,215.976 83.891,215.833 84.063 C 215.691 84.234,215.442 84.375,215.280 84.375 C 215.119 84.375,214.924 84.539,214.847 84.740 C 214.666 85.214,213.940 85.818,213.540 85.826 C 213.367 85.830,212.724 86.299,212.112 86.868 C 211.499 87.437,210.797 87.965,210.551 88.042 C 210.305 88.119,209.846 88.450,209.529 88.778 C 209.213 89.106,208.858 89.375,208.740 89.375 C 208.466 89.375,207.241 90.229,207.021 90.573 C 206.929 90.716,206.690 90.833,206.489 90.833 C 206.288 90.833,205.765 91.161,205.327 91.563 C 204.889 91.964,204.396 92.292,204.232 92.292 C 204.068 92.292,203.504 92.620,202.978 93.021 C 202.453 93.422,201.896 93.750,201.741 93.750 C 201.585 93.750,201.458 93.842,201.458 93.954 C 201.458 94.067,201.217 94.219,200.921 94.294 C 200.626 94.368,200.089 94.698,199.729 95.027 C 199.369 95.356,198.906 95.625,198.702 95.625 C 198.497 95.625,198.169 95.812,197.972 96.042 C 197.776 96.271,197.449 96.458,197.245 96.458 C 197.042 96.458,196.664 96.650,196.406 96.885 C 196.148 97.119,195.789 97.447,195.608 97.614 C 195.426 97.780,195.085 97.917,194.849 97.917 C 194.613 97.917,194.366 98.057,194.300 98.229 C 194.234 98.401,194.043 98.542,193.876 98.542 C 193.708 98.542,193.445 98.659,193.291 98.802 C 192.669 99.378,191.665 100.000,191.356 100.000 C 191.176 100.000,190.975 100.141,190.909 100.313 C 190.843 100.484,190.579 100.625,190.322 100.625 C 190.066 100.625,189.687 100.812,189.479 101.042 C 189.272 101.271,188.926 101.458,188.711 101.458 C 188.496 101.458,188.266 101.599,188.200 101.771 C 188.134 101.943,187.856 102.083,187.582 102.083 C 187.308 102.083,187.083 102.160,187.083 102.255 C 187.083 102.527,185.421 103.542,184.975 103.542 C 184.752 103.542,184.516 103.682,184.450 103.854 C 184.384 104.026,184.174 104.167,183.982 104.167 C 183.791 104.167,183.449 104.295,183.223 104.453 C 182.997 104.610,182.516 104.803,182.153 104.882 C 181.790 104.961,181.441 105.160,181.378 105.325 C 181.315 105.490,181.044 105.625,180.776 105.625 C 180.507 105.625,180.106 105.763,179.884 105.931 C 179.661 106.099,179.328 106.240,179.143 106.243 C 178.958 106.247,178.583 106.423,178.309 106.635 C 178.036 106.847,177.555 107.083,177.240 107.160 C 176.924 107.237,176.667 107.392,176.667 107.504 C 176.667 107.616,176.389 107.708,176.049 107.708 C 175.645 107.708,175.354 107.852,175.208 108.125 C 175.054 108.414,174.772 108.542,174.289 108.542 C 173.906 108.542,173.476 108.682,173.333 108.854 C 173.191 109.026,172.863 109.167,172.604 109.167 C 172.346 109.167,172.018 109.307,171.875 109.479 C 171.732 109.651,171.463 109.795,171.277 109.799 C 171.090 109.803,170.563 109.987,170.104 110.208 C 169.646 110.430,169.118 110.614,168.932 110.618 C 168.745 110.622,168.484 110.756,168.351 110.916 C 168.219 111.076,167.772 111.270,167.358 111.347 C 166.945 111.425,166.470 111.625,166.302 111.793 C 166.135 111.960,165.825 112.043,165.614 111.976 C 165.377 111.901,165.066 112.018,164.802 112.281 C 164.567 112.516,164.147 112.708,163.869 112.708 C 163.591 112.708,163.237 112.835,163.083 112.989 C 162.928 113.143,162.448 113.336,162.015 113.417 C 161.582 113.498,161.176 113.700,161.113 113.866 C 161.036 114.064,160.689 114.167,160.092 114.167 C 159.554 114.167,159.120 114.281,159.021 114.448 C 158.929 114.602,158.491 114.786,158.047 114.855 C 157.603 114.925,157.080 115.127,156.885 115.304 C 156.690 115.480,156.273 115.625,155.958 115.625 C 155.644 115.625,155.246 115.766,155.074 115.937 C 154.903 116.109,154.461 116.250,154.094 116.250 C 153.727 116.250,153.241 116.377,153.015 116.532 C 152.789 116.687,152.196 116.877,151.698 116.954 C 151.200 117.032,150.654 117.233,150.485 117.402 C 150.307 117.580,149.790 117.708,149.249 117.708 C 148.616 117.708,148.282 117.808,148.200 118.021 C 148.117 118.237,147.780 118.333,147.107 118.333 C 146.559 118.333,145.930 118.477,145.666 118.661 C 145.408 118.842,144.676 119.043,144.039 119.109 C 143.350 119.180,142.836 119.343,142.772 119.510 C 142.697 119.705,142.262 119.792,141.354 119.792 C 140.446 119.792,140.011 119.878,139.937 120.073 C 139.872 120.241,139.352 120.404,138.643 120.477 C 137.991 120.544,137.295 120.746,137.098 120.925 C 136.855 121.144,136.327 121.250,135.475 121.250 C 134.602 121.250,134.178 121.338,134.103 121.533 C 134.031 121.721,133.486 121.853,132.494 121.924 C 131.669 121.983,130.935 122.123,130.862 122.235 C 130.789 122.347,129.982 122.493,129.069 122.561 C 127.914 122.646,127.336 122.782,127.171 123.008 C 126.988 123.259,126.525 123.333,125.148 123.333 C 123.911 123.333,123.275 123.421,123.076 123.620 C 122.884 123.812,122.098 123.934,120.690 123.991 C 119.509 124.038,118.461 124.183,118.294 124.321 C 118.131 124.456,117.206 124.622,116.239 124.690 C 113.818 124.860,113.093 124.987,113.236 125.219 C 113.311 125.341,112.096 125.417,110.081 125.417 C 107.522 125.417,106.731 125.482,106.472 125.716 C 106.203 125.960,104.755 126.040,98.748 126.144 C 94.681 126.215,90.803 126.367,90.129 126.484 C 89.292 126.628,88.466 126.626,87.524 126.478 C 86.766 126.359,82.865 126.206,78.856 126.138 C 72.941 126.038,71.503 125.958,71.235 125.716 C 70.979 125.484,70.201 125.417,67.761 125.417 C 65.589 125.417,64.594 125.343,64.539 125.179 C 64.490 125.034,63.529 124.868,62.088 124.756 C 60.783 124.655,59.582 124.460,59.417 124.324 C 59.247 124.182,58.212 124.039,57.018 123.991 C 55.611 123.934,54.824 123.812,54.632 123.620 C 54.432 123.420,53.788 123.333,52.495 123.333 C 51.034 123.333,50.607 123.265,50.463 123.008 C 50.332 122.773,49.817 122.647,48.630 122.560 C 47.722 122.493,46.921 122.348,46.849 122.239 C 46.778 122.129,46.075 121.989,45.287 121.928 C 44.401 121.859,43.791 121.708,43.688 121.533 C 43.576 121.343,43.100 121.250,42.246 121.250 C 41.382 121.250,40.854 121.145,40.611 120.925 C 40.413 120.746,39.718 120.544,39.066 120.477 C 38.357 120.404,37.836 120.241,37.772 120.073 C 37.697 119.878,37.262 119.792,36.354 119.792 C 35.446 119.792,35.011 119.705,34.937 119.510 C 34.872 119.343,34.358 119.180,33.670 119.109 C 33.032 119.043,32.300 118.842,32.042 118.661 C 31.778 118.477,31.149 118.333,30.601 118.333 C 29.928 118.333,29.591 118.237,29.508 118.021 C 29.426 117.808,29.093 117.708,28.459 117.708 C 27.908 117.708,27.402 117.580,27.215 117.394 C 27.042 117.220,26.474 117.020,25.952 116.949 C 25.431 116.877,24.898 116.691,24.768 116.534 C 24.639 116.378,24.175 116.250,23.739 116.250 C 23.303 116.250,22.806 116.109,22.634 115.938 C 22.462 115.766,22.064 115.625,21.750 115.625 C 21.436 115.625,21.019 115.480,20.823 115.304 C 20.628 115.127,20.105 114.925,19.661 114.855 C 19.217 114.786,18.779 114.602,18.688 114.448 C 18.590 114.283,18.158 114.167,17.644 114.167 C 16.981 114.167,16.701 114.061,16.496 113.733 C 16.347 113.494,16.099 113.347,15.946 113.405 C 15.793 113.464,15.330 113.331,14.918 113.110 C 14.506 112.889,13.938 112.708,13.657 112.708 C 13.376 112.708,13.059 112.553,12.952 112.363 C 12.775 112.046,12.422 111.940,11.394 111.892 C 11.187 111.883,11.070 111.790,11.134 111.685 C 11.199 111.581,10.882 111.433,10.430 111.356 C 9.977 111.280,9.497 111.084,9.361 110.921 C 9.226 110.758,8.899 110.625,8.635 110.625 C 8.371 110.625,8.021 110.491,7.857 110.328 C 7.694 110.164,7.222 109.967,6.808 109.889 C 6.395 109.812,5.948 109.617,5.815 109.457 C 5.683 109.297,5.363 109.167,5.104 109.167 C 4.846 109.167,4.518 109.026,4.375 108.854 C 4.232 108.682,3.802 108.542,3.419 108.542 C 2.936 108.542,2.655 108.414,2.500 108.125 C 2.377 107.896,2.069 107.705,1.816 107.702 C 1.562 107.698,1.172 107.557,0.950 107.389 C 0.727 107.221,0.423 107.083,0.273 107.083 C 0.048 107.083,0.000 120.606,0.000 183.125 C 0.000 255.406,0.018 259.167,0.365 259.168 C 0.565 259.169,1.010 259.356,1.354 259.583 C 1.751 259.846,2.332 259.998,2.943 259.999 C 3.545 259.999,4.005 260.118,4.167 260.313 C 4.343 260.525,4.815 260.625,5.640 260.625 C 6.537 260.625,6.903 260.712,7.041 260.959 C 7.173 261.194,7.651 261.327,8.661 261.408 C 9.449 261.471,10.220 261.649,10.375 261.803 C 10.546 261.974,11.131 262.083,11.880 262.083 C 12.793 262.083,13.152 262.169,13.294 262.422 C 13.432 262.669,13.897 262.788,15.023 262.865 C 15.870 262.922,16.681 263.064,16.826 263.180 C 16.971 263.295,17.768 263.437,18.597 263.495 C 19.426 263.553,20.163 263.691,20.235 263.802 C 20.396 264.052,21.895 264.354,23.031 264.366 C 23.495 264.371,23.979 264.479,24.105 264.605 C 24.232 264.732,25.139 264.885,26.120 264.947 C 27.102 265.008,27.862 265.128,27.809 265.214 C 27.660 265.455,28.518 265.619,29.944 265.622 C 30.658 265.624,31.595 265.761,32.027 265.928 C 32.459 266.095,33.678 266.274,34.735 266.326 C 36.119 266.394,36.751 266.513,36.990 266.752 C 37.249 267.011,37.779 267.083,39.426 267.083 C 40.941 267.083,41.622 267.165,41.859 267.377 C 42.088 267.582,42.930 267.697,44.653 267.758 C 46.386 267.819,47.169 267.927,47.288 268.119 C 47.410 268.317,48.311 268.421,50.551 268.495 C 52.865 268.571,53.688 268.669,53.812 268.882 C 53.944 269.106,54.776 269.167,57.729 269.167 C 60.908 269.167,61.581 269.222,62.146 269.531 C 62.771 269.873,64.445 269.896,88.854 269.896 C 113.263 269.896,114.938 269.873,115.563 269.531 C 116.125 269.223,116.795 269.167,119.860 269.167 C 122.686 269.167,123.543 269.103,123.728 268.880 C 123.902 268.670,124.758 268.570,126.931 268.504 C 129.124 268.437,130.031 268.329,130.417 268.090 C 130.792 267.857,131.575 267.756,133.224 267.727 C 134.885 267.699,135.602 267.605,135.845 267.386 C 136.090 267.163,136.736 267.083,138.283 267.083 C 139.888 267.083,140.462 267.008,140.704 266.767 C 140.922 266.549,141.624 266.415,142.958 266.338 C 144.024 266.276,145.249 266.090,145.681 265.925 C 146.113 265.760,147.051 265.624,147.765 265.622 C 149.190 265.619,150.048 265.455,149.899 265.214 C 149.846 265.128,150.606 265.008,151.588 264.947 C 152.570 264.885,153.477 264.732,153.603 264.605 C 153.730 264.479,154.213 264.371,154.677 264.366 C 155.809 264.354,157.312 264.052,157.473 263.805 C 157.545 263.695,158.292 263.548,159.133 263.480 C 159.973 263.411,160.770 263.268,160.903 263.162 C 161.037 263.056,161.839 262.922,162.686 262.865 C 163.811 262.788,164.276 262.669,164.415 262.422 C 164.556 262.169,164.915 262.083,165.829 262.083 C 166.577 262.083,167.163 261.974,167.334 261.803 C 167.488 261.649,168.259 261.471,169.047 261.408 C 170.057 261.327,170.535 261.194,170.667 260.959 C 170.805 260.712,171.171 260.625,172.068 260.625 C 172.893 260.625,173.365 260.525,173.542 260.313 C 173.703 260.118,174.164 259.999,174.765 259.999 C 175.377 259.998,175.958 259.846,176.354 259.583 C 176.760 259.315,177.332 259.169,177.984 259.168 C 178.597 259.167,179.110 259.045,179.301 258.854 C 179.492 258.663,180.002 258.542,180.614 258.542 C 181.205 258.542,181.712 258.425,181.851 258.258 C 181.980 258.102,182.616 257.920,183.263 257.853 C 183.910 257.786,184.497 257.640,184.566 257.528 C 184.636 257.415,185.277 257.257,185.992 257.177 C 186.882 257.076,187.292 256.940,187.292 256.744 C 187.292 256.546,187.568 256.458,188.189 256.458 C 188.683 256.458,189.269 256.321,189.491 256.153 C 189.714 255.985,190.340 255.785,190.882 255.710 C 191.424 255.634,191.975 255.444,192.105 255.286 C 192.240 255.124,192.734 255.000,193.244 255.000 C 193.783 255.000,194.213 254.886,194.313 254.717 C 194.404 254.561,194.939 254.384,195.500 254.322 C 196.130 254.253,196.593 254.083,196.708 253.876 C 196.835 253.649,197.186 253.542,197.797 253.542 C 198.345 253.542,198.801 253.419,198.958 253.229 C 199.101 253.057,199.481 252.917,199.802 252.917 C 200.124 252.917,200.512 252.791,200.665 252.638 C 200.819 252.485,201.348 252.305,201.842 252.239 C 202.336 252.173,202.905 251.970,203.105 251.788 C 203.306 251.607,203.804 251.458,204.213 251.458 C 204.681 251.458,205.000 251.343,205.075 251.146 C 205.149 250.953,205.466 250.833,205.899 250.833 C 206.304 250.833,206.807 250.656,207.083 250.417 C 207.350 250.185,207.863 250.000,208.236 250.000 C 208.605 250.000,209.024 249.859,209.167 249.688 C 209.311 249.514,209.765 249.375,210.188 249.375 C 210.691 249.375,211.070 249.234,211.306 248.958 C 211.502 248.729,211.874 248.539,212.133 248.535 C 212.392 248.531,212.786 248.391,213.009 248.223 C 213.231 248.054,213.662 247.917,213.966 247.917 C 214.270 247.917,214.691 247.726,214.902 247.493 C 215.114 247.259,215.416 247.118,215.574 247.179 C 215.732 247.240,216.272 247.102,216.773 246.874 C 217.275 246.645,217.834 246.458,218.016 246.458 C 218.198 246.458,218.397 246.327,218.458 246.167 C 218.519 246.007,218.985 245.814,219.493 245.738 C 220.001 245.662,220.417 245.522,220.417 245.427 C 220.417 245.332,220.750 245.192,221.157 245.116 C 221.564 245.039,221.949 244.842,222.012 244.676 C 222.081 244.498,222.407 244.375,222.809 244.375 C 223.184 244.375,223.607 244.234,223.750 244.063 C 223.893 243.891,224.232 243.750,224.505 243.750 C 224.777 243.750,225.188 243.563,225.417 243.333 C 225.676 243.074,226.111 242.917,226.569 242.917 C 227.031 242.917,227.349 242.800,227.425 242.604 C 227.491 242.432,227.800 242.292,228.115 242.292 C 228.429 242.292,228.855 242.104,229.063 241.875 C 229.270 241.646,229.696 241.458,230.010 241.458 C 230.325 241.458,230.634 241.318,230.700 241.146 C 230.776 240.949,231.095 240.833,231.563 240.833 C 232.031 240.833,232.349 240.718,232.425 240.520 C 232.491 240.347,232.910 240.148,233.356 240.076 C 233.802 240.005,234.167 239.872,234.167 239.782 C 234.167 239.691,234.440 239.556,234.774 239.483 C 235.108 239.410,235.429 239.228,235.486 239.079 C 235.543 238.931,235.972 238.748,236.440 238.673 C 236.909 238.598,237.292 238.459,237.292 238.364 C 237.292 238.269,237.667 238.079,238.125 237.941 C 238.583 237.804,238.958 237.602,238.958 237.492 C 238.958 237.382,239.146 237.292,239.376 237.292 C 239.605 237.292,240.143 237.104,240.571 236.875 C 240.998 236.646,241.457 236.458,241.589 236.458 C 241.722 236.458,241.884 236.318,241.950 236.146 C 242.016 235.974,242.311 235.833,242.604 235.833 C 242.898 235.833,243.192 235.693,243.258 235.521 C 243.324 235.349,243.509 235.208,243.669 235.208 C 243.829 235.208,244.310 235.021,244.737 234.792 C 245.165 234.563,245.636 234.375,245.785 234.375 C 245.933 234.375,246.109 234.234,246.175 234.062 C 246.243 233.884,246.554 233.750,246.897 233.750 C 247.294 233.750,247.500 233.643,247.500 233.438 C 247.500 233.231,247.707 233.125,248.113 233.125 C 248.471 233.125,248.840 232.965,248.999 232.742 C 249.148 232.531,249.529 232.295,249.844 232.217 C 250.159 232.139,250.417 231.983,250.417 231.871 C 250.417 231.759,250.695 231.667,251.034 231.667 C 251.439 231.667,251.729 231.523,251.875 231.250 C 252.007 231.004,252.311 230.833,252.618 230.833 C 252.904 230.833,253.192 230.693,253.258 230.521 C 253.324 230.349,253.599 230.208,253.869 230.208 C 254.147 230.208,254.457 230.027,254.583 229.792 C 254.726 229.524,255.020 229.375,255.402 229.375 C 255.739 229.375,256.049 229.239,256.117 229.063 C 256.183 228.891,256.413 228.750,256.628 228.750 C 256.843 228.750,257.188 228.563,257.396 228.333 C 257.603 228.104,257.946 227.917,258.157 227.917 C 258.369 227.917,258.542 227.823,258.542 227.708 C 258.542 227.594,258.682 227.500,258.854 227.500 C 259.026 227.500,259.341 227.326,259.553 227.113 C 259.766 226.901,260.188 226.665,260.491 226.589 C 260.794 226.513,261.042 226.358,261.042 226.246 C 261.042 226.134,261.229 226.042,261.458 226.042 C 261.688 226.042,262.063 225.854,262.292 225.625 C 262.521 225.396,262.850 225.208,263.023 225.208 C 263.196 225.208,263.804 224.880,264.375 224.479 C 264.946 224.078,265.496 223.750,265.597 223.750 C 265.699 223.750,265.899 223.609,266.042 223.438 C 266.184 223.266,266.463 223.125,266.660 223.125 C 266.857 223.125,267.188 222.938,267.396 222.708 C 267.603 222.479,267.993 222.292,268.261 222.292 C 268.547 222.292,268.750 222.167,268.750 221.993 C 268.750 221.829,268.938 221.635,269.167 221.563 C 269.396 221.490,269.583 221.343,269.583 221.236 C 269.583 221.129,269.758 221.042,269.972 221.042 C 270.186 221.042,270.585 220.878,270.860 220.677 C 271.493 220.214,272.105 219.828,272.484 219.650 C 272.647 219.574,272.952 219.340,273.161 219.130 C 273.370 218.921,273.732 218.750,273.965 218.750 C 274.198 218.750,274.442 218.609,274.508 218.437 C 274.574 218.266,274.800 218.125,275.011 218.125 C 275.221 218.125,275.750 217.797,276.186 217.397 C 276.622 216.996,277.105 216.668,277.259 216.668 C 277.413 216.667,277.777 216.479,278.068 216.250 C 278.359 216.021,278.726 215.833,278.882 215.833 C 279.039 215.833,279.167 215.750,279.167 215.648 C 279.167 215.545,279.401 215.403,279.688 215.331 C 279.974 215.259,280.208 215.062,280.208 214.892 C 280.208 214.722,280.389 214.583,280.610 214.583 C 280.831 214.583,281.153 214.443,281.324 214.271 C 281.496 214.099,281.734 213.958,281.853 213.958 C 281.972 213.958,282.169 213.771,282.292 213.542 C 282.414 213.313,282.692 213.125,282.909 213.125 C 283.126 213.125,283.444 212.984,283.616 212.813 C 283.788 212.641,284.026 212.500,284.144 212.500 C 284.263 212.500,284.461 212.313,284.583 212.083 C 284.706 211.854,284.949 211.667,285.124 211.667 C 285.299 211.667,285.871 211.339,286.397 210.938 C 286.922 210.536,287.427 210.208,287.519 210.208 C 287.611 210.208,287.949 209.966,288.268 209.669 C 288.588 209.373,289.155 209.003,289.529 208.847 C 289.903 208.691,290.208 208.464,290.208 208.344 C 290.208 208.224,290.339 208.125,290.499 208.125 C 290.658 208.125,290.843 207.984,290.909 207.813 C 290.975 207.641,291.200 207.500,291.410 207.500 C 291.619 207.500,292.115 207.175,292.510 206.777 C 292.906 206.380,293.370 206.051,293.542 206.047 C 293.714 206.043,294.193 205.735,294.607 205.364 C 295.450 204.607,295.949 204.253,296.563 203.980 C 296.792 203.878,297.260 203.506,297.604 203.153 C 297.948 202.800,298.307 202.509,298.401 202.506 C 298.650 202.497,300.833 200.765,300.833 200.576 C 300.833 200.488,300.997 200.415,301.198 200.414 C 301.398 200.412,301.984 200.028,302.500 199.561 C 303.016 199.093,303.906 198.398,304.479 198.015 C 305.052 197.632,305.849 197.035,306.250 196.687 C 307.185 195.876,307.227 195.844,308.290 195.122 C 308.782 194.788,309.251 194.407,309.332 194.276 C 309.575 193.882,311.497 192.500,311.801 192.500 C 311.956 192.500,312.083 192.359,312.083 192.188 C 312.083 192.016,312.158 191.875,312.250 191.875 C 312.341 191.875,312.740 191.550,313.135 191.152 C 313.531 190.755,313.928 190.427,314.019 190.423 C 314.322 190.411,315.470 189.491,316.821 188.177 C 317.557 187.461,318.276 186.875,318.418 186.875 C 318.560 186.875,319.196 186.383,319.832 185.781 C 321.967 183.763,323.156 182.708,323.297 182.707 C 323.374 182.707,323.794 182.379,324.230 181.978 C 324.666 181.578,325.068 181.250,325.123 181.250 C 325.178 181.250,326.042 180.430,327.043 179.427 C 328.044 178.424,329.840 176.760,331.033 175.729 C 334.085 173.092,348.788 158.336,350.521 156.171 C 350.865 155.741,352.067 154.445,353.192 153.290 C 354.317 152.135,355.763 150.524,356.405 149.710 C 357.809 147.930,357.832 147.903,359.270 146.458 C 359.897 145.828,360.412 145.205,360.414 145.074 C 360.415 144.943,360.557 144.782,360.729 144.716 C 360.901 144.650,361.042 144.406,361.042 144.173 C 361.042 143.932,361.179 143.750,361.361 143.750 C 361.536 143.750,361.738 143.598,361.809 143.413 C 361.880 143.227,362.229 142.776,362.584 142.410 C 363.743 141.214,364.583 140.173,364.587 139.928 C 364.589 139.796,364.814 139.476,365.086 139.218 C 365.359 138.959,365.939 138.280,366.375 137.707 C 366.812 137.135,367.243 136.667,367.334 136.667 C 367.426 136.667,367.500 136.531,367.500 136.365 C 367.500 136.199,367.970 135.566,368.543 134.958 C 369.117 134.351,369.639 133.690,369.703 133.490 C 369.767 133.289,369.907 133.125,370.014 133.125 C 370.121 133.125,370.208 132.989,370.208 132.823 C 370.208 132.657,370.327 132.446,370.472 132.354 C 370.837 132.123,372.500 130.087,372.502 129.867 C 372.503 129.768,372.925 129.231,373.440 128.673 C 373.954 128.116,374.375 127.533,374.375 127.379 C 374.375 127.225,374.545 126.932,374.753 126.727 C 375.438 126.050,376.667 124.440,376.667 124.219 C 376.667 124.099,376.995 123.713,377.396 123.361 C 377.797 123.009,378.125 122.541,378.125 122.320 C 378.125 122.100,378.266 121.866,378.438 121.800 C 378.609 121.734,378.750 121.578,378.750 121.455 C 378.750 121.331,379.078 120.891,379.479 120.479 C 379.880 120.066,380.211 119.578,380.215 119.395 C 380.219 119.212,380.547 118.739,380.944 118.343 C 381.342 117.948,381.670 117.479,381.673 117.302 C 381.677 117.124,382.005 116.656,382.402 116.260 C 382.800 115.865,383.125 115.382,383.125 115.189 C 383.125 114.995,383.266 114.782,383.438 114.716 C 383.609 114.650,383.750 114.467,383.750 114.310 C 383.750 114.152,383.938 113.853,384.167 113.646 C 384.396 113.438,384.583 113.143,384.583 112.989 C 384.583 112.834,384.672 112.708,384.780 112.708 C 384.975 112.708,385.318 112.169,385.914 110.929 C 386.082 110.581,386.446 110.066,386.724 109.784 C 387.001 109.502,387.292 109.013,387.368 108.698 C 387.445 108.383,387.600 108.125,387.712 108.125 C 387.825 108.125,387.917 107.988,387.917 107.820 C 387.917 107.652,388.104 107.414,388.333 107.292 C 388.563 107.169,388.750 106.896,388.750 106.685 C 388.750 106.474,388.891 106.184,389.063 106.042 C 389.234 105.899,389.375 105.668,389.375 105.528 C 389.375 105.388,389.563 105.103,389.792 104.896 C 390.021 104.688,390.208 104.404,390.208 104.264 C 390.208 104.124,390.349 103.893,390.521 103.750 C 390.693 103.607,390.833 103.318,390.833 103.107 C 390.833 102.896,391.021 102.623,391.250 102.500 C 391.479 102.377,391.667 102.093,391.667 101.868 C 391.667 101.643,391.760 101.458,391.875 101.458 C 391.990 101.458,392.083 101.355,392.083 101.228 C 392.083 101.101,392.318 100.719,392.604 100.379 C 392.891 100.038,393.125 99.622,393.125 99.454 C 393.125 99.154,393.289 98.905,394.010 98.110 C 394.211 97.889,394.375 97.579,394.375 97.421 C 394.375 97.263,394.510 97.023,394.674 96.886 C 394.839 96.750,395.034 96.363,395.107 96.027 C 395.181 95.691,395.330 95.417,395.438 95.417 C 395.547 95.417,395.731 95.206,395.847 94.948 C 396.182 94.208,396.571 93.576,396.946 93.162 C 397.136 92.952,397.292 92.584,397.292 92.345 C 397.292 92.105,397.398 91.874,397.528 91.831 C 397.747 91.758,398.911 89.846,399.361 88.822 C 399.469 88.576,399.657 88.312,399.779 88.237 C 399.934 88.141,400.000 74.898,400.000 44.050 L 400.000 0.000 341.250 0.000 L 282.500 0.000 282.500 0.521 " stroke="none" fill="#000000" fill-rule="evenodd"></path></g></svg>