<svg id="svg" xmlns="http://www.w3.org/2000/svg" xmlns:xlink="http://www.w3.org/1999/xlink" width="400" height="270.8333333333333" viewBox="0, 0, 400,270.8333333333333"><g id="svgg"><path id="path0" d="M0.052 54.844 L 0.104 109.688 0.625 109.759 C 0.911 109.798,1.298 109.966,1.485 110.132 C 1.671 110.298,2.163 110.490,2.578 110.557 C 2.994 110.624,3.333 110.757,3.333 110.851 C 3.333 110.946,3.655 111.083,4.048 111.157 C 4.441 111.231,4.808 111.409,4.864 111.553 C 4.919 111.698,5.347 111.877,5.815 111.952 C 6.284 112.027,6.667 112.180,6.667 112.292 C 6.667 112.404,7.040 112.555,7.496 112.628 C 7.952 112.701,8.432 112.889,8.563 113.047 C 8.694 113.204,9.012 113.333,9.271 113.333 C 9.529 113.333,9.857 113.474,10.000 113.646 C 10.143 113.818,10.561 113.958,10.931 113.958 C 11.338 113.958,11.751 114.123,11.979 114.375 C 12.192 114.610,12.621 114.792,12.964 114.792 C 13.298 114.792,13.712 114.932,13.884 115.104 C 14.056 115.276,14.466 115.417,14.796 115.417 C 15.126 115.417,15.478 115.564,15.579 115.744 C 15.682 115.929,16.165 116.124,16.683 116.191 C 17.190 116.257,17.679 116.438,17.771 116.593 C 17.865 116.752,18.286 116.875,18.738 116.875 C 19.232 116.875,19.582 116.987,19.651 117.167 C 19.712 117.327,20.168 117.526,20.663 117.610 C 21.158 117.693,21.747 117.889,21.973 118.047 C 22.199 118.204,22.728 118.333,23.149 118.333 C 23.637 118.333,23.957 118.447,24.034 118.646 C 24.110 118.845,24.431 118.958,24.917 118.958 C 25.337 118.958,25.972 119.130,26.330 119.339 C 26.687 119.548,27.354 119.742,27.813 119.770 C 28.271 119.797,28.750 119.954,28.877 120.118 C 29.023 120.307,29.493 120.417,30.154 120.417 C 30.791 120.417,31.293 120.529,31.439 120.706 C 31.571 120.865,32.207 121.061,32.853 121.142 C 33.498 121.223,34.159 121.420,34.320 121.582 C 34.497 121.759,35.044 121.875,35.702 121.875 C 36.301 121.875,36.901 121.984,37.034 122.117 C 37.167 122.250,37.809 122.432,38.461 122.520 C 39.113 122.609,39.710 122.785,39.789 122.912 C 39.868 123.039,40.627 123.200,41.476 123.269 C 42.439 123.347,43.084 123.501,43.187 123.677 C 43.297 123.863,43.771 123.958,44.579 123.958 C 45.390 123.958,45.909 124.064,46.116 124.271 C 46.337 124.492,46.876 124.583,47.957 124.583 C 49.087 124.583,49.688 124.692,50.263 125.000 C 50.839 125.309,51.438 125.417,52.578 125.417 C 53.691 125.417,54.187 125.503,54.375 125.729 C 54.575 125.970,55.128 126.042,56.786 126.042 C 58.542 126.042,58.972 126.103,59.124 126.375 C 59.271 126.637,59.799 126.733,61.582 126.821 C 62.892 126.887,63.917 127.032,64.002 127.165 C 64.099 127.315,65.412 127.417,67.752 127.458 C 70.855 127.511,71.392 127.569,71.624 127.874 C 72.046 128.431,104.922 128.421,105.233 127.865 C 105.414 127.541,105.813 127.500,108.781 127.500 C 111.217 127.500,112.303 127.420,112.781 127.205 C 113.142 127.043,114.353 126.868,115.473 126.817 C 116.966 126.749,117.608 126.634,117.885 126.383 C 118.179 126.117,118.701 126.042,120.251 126.042 C 121.765 126.042,122.303 125.967,122.500 125.729 C 122.688 125.503,123.184 125.417,124.297 125.417 C 125.437 125.417,126.036 125.309,126.612 125.000 C 127.187 124.692,127.788 124.583,128.918 124.583 C 129.999 124.583,130.538 124.492,130.759 124.271 C 130.966 124.064,131.485 123.958,132.296 123.958 C 133.108 123.958,133.577 123.863,133.688 123.675 C 133.791 123.500,134.401 123.349,135.287 123.280 C 136.075 123.219,136.782 123.068,136.858 122.944 C 136.935 122.820,137.648 122.627,138.444 122.514 C 139.239 122.401,139.923 122.211,139.962 122.092 C 140.002 121.973,140.472 121.874,141.007 121.874 C 141.542 121.873,142.243 121.735,142.565 121.567 C 142.888 121.398,143.613 121.200,144.176 121.125 C 144.740 121.050,145.308 120.860,145.439 120.703 C 145.582 120.530,146.089 120.417,146.721 120.417 C 147.382 120.417,147.852 120.307,147.998 120.118 C 148.125 119.954,148.604 119.797,149.063 119.770 C 149.521 119.742,150.188 119.548,150.545 119.339 C 150.903 119.130,151.538 118.958,151.958 118.958 C 152.444 118.958,152.765 118.845,152.841 118.646 C 152.913 118.460,153.227 118.333,153.616 118.332 C 153.976 118.331,154.521 118.200,154.827 118.041 C 155.132 117.881,155.772 117.685,156.247 117.605 C 156.723 117.524,157.163 117.327,157.224 117.167 C 157.293 116.987,157.642 116.875,158.132 116.875 C 158.570 116.875,159.053 116.750,159.206 116.598 C 159.358 116.446,159.834 116.264,160.264 116.194 C 160.694 116.124,161.192 115.921,161.371 115.742 C 161.550 115.563,161.917 115.417,162.188 115.417 C 162.458 115.417,162.819 115.276,162.991 115.104 C 163.163 114.932,163.577 114.792,163.911 114.792 C 164.254 114.792,164.683 114.610,164.896 114.375 C 165.124 114.123,165.537 113.958,165.944 113.958 C 166.314 113.958,166.732 113.818,166.875 113.646 C 167.018 113.474,167.394 113.333,167.712 113.333 C 168.029 113.333,168.338 113.206,168.397 113.050 C 168.457 112.895,168.877 112.708,169.330 112.636 C 169.783 112.563,170.272 112.362,170.415 112.189 C 170.559 112.016,170.934 111.875,171.250 111.875 C 171.566 111.875,171.936 111.740,172.072 111.576 C 172.209 111.411,172.595 111.216,172.931 111.143 C 173.267 111.069,173.542 110.933,173.542 110.840 C 173.542 110.748,173.955 110.610,174.461 110.534 C 174.967 110.459,175.432 110.261,175.496 110.094 C 175.560 109.928,175.843 109.792,176.124 109.792 C 176.406 109.792,176.778 109.651,176.949 109.479 C 177.121 109.307,177.409 109.167,177.589 109.167 C 177.769 109.167,178.104 108.979,178.333 108.750 C 178.567 108.517,179.028 108.333,179.382 108.333 C 179.731 108.333,180.063 108.203,180.125 108.041 C 180.187 107.881,180.549 107.691,180.931 107.619 C 181.313 107.548,181.739 107.351,181.880 107.182 C 182.020 107.013,182.346 106.875,182.604 106.875 C 182.863 106.875,183.191 106.734,183.333 106.562 C 183.476 106.391,183.757 106.250,183.958 106.250 C 184.159 106.250,184.439 106.112,184.579 105.943 C 184.719 105.774,185.152 105.576,185.542 105.503 C 185.943 105.428,186.250 105.245,186.250 105.081 C 186.250 104.910,186.466 104.792,186.777 104.792 C 187.067 104.792,187.357 104.657,187.420 104.492 C 187.483 104.327,187.808 104.132,188.142 104.059 C 188.477 103.985,188.750 103.850,188.750 103.759 C 188.750 103.667,189.031 103.476,189.375 103.333 C 189.719 103.191,190.000 102.992,190.000 102.891 C 190.000 102.791,190.230 102.708,190.510 102.708 C 190.791 102.708,191.096 102.589,191.188 102.444 C 191.279 102.298,191.589 102.062,191.875 101.920 C 192.911 101.406,194.161 100.660,194.707 100.230 C 195.014 99.989,195.442 99.792,195.660 99.792 C 195.877 99.792,196.105 99.660,196.167 99.498 C 196.229 99.336,196.508 99.147,196.786 99.077 C 197.064 99.008,197.292 98.858,197.292 98.746 C 197.292 98.634,197.418 98.542,197.572 98.542 C 197.726 98.542,198.022 98.354,198.229 98.125 C 198.437 97.896,198.768 97.708,198.965 97.708 C 199.162 97.708,199.441 97.568,199.583 97.396 C 199.726 97.224,199.953 97.083,200.087 97.083 C 200.339 97.083,201.001 96.632,201.691 95.990 C 201.907 95.789,202.228 95.625,202.404 95.625 C 202.683 95.625,203.867 94.914,204.167 94.567 C 204.224 94.500,204.776 94.172,205.393 93.838 C 206.010 93.503,206.805 92.971,207.158 92.656 C 207.512 92.341,207.944 92.083,208.119 92.082 C 208.294 92.082,208.794 91.754,209.230 91.353 C 209.666 90.953,210.119 90.625,210.237 90.625 C 210.355 90.625,210.851 90.297,211.341 89.896 C 211.830 89.495,212.291 89.167,212.365 89.167 C 212.439 89.167,212.688 89.003,212.917 88.802 C 213.146 88.602,213.521 88.273,213.750 88.073 C 213.979 87.872,214.250 87.708,214.353 87.708 C 214.455 87.708,214.593 87.568,214.659 87.396 C 214.725 87.224,214.889 87.083,215.024 87.083 C 215.237 87.083,216.521 86.141,217.500 85.266 C 218.368 84.492,218.841 84.167,219.101 84.167 C 219.259 84.167,219.442 84.026,219.508 83.854 C 219.574 83.682,219.707 83.542,219.804 83.542 C 220.046 83.542,221.042 82.528,221.042 82.282 C 221.042 82.173,221.232 82.083,221.465 82.083 C 221.698 82.083,221.942 81.943,222.008 81.771 C 222.074 81.599,222.235 81.456,222.366 81.454 C 222.497 81.451,223.127 80.959,223.765 80.360 C 224.404 79.761,225.000 79.259,225.090 79.245 C 225.181 79.231,225.800 78.738,226.467 78.151 C 227.135 77.564,227.780 77.083,227.903 77.083 C 228.025 77.083,228.127 76.966,228.129 76.823 C 228.132 76.680,228.507 76.299,228.963 75.976 C 229.419 75.654,229.792 75.302,229.792 75.195 C 229.792 75.088,229.926 75.000,230.090 75.000 C 230.255 75.000,231.390 74.039,232.613 72.865 C 235.955 69.656,236.267 69.366,237.708 68.125 C 239.772 66.347,242.500 63.476,242.500 63.081 C 242.500 62.991,242.641 62.917,242.813 62.917 C 242.984 62.917,243.125 62.814,243.125 62.688 C 243.125 62.562,243.594 62.000,244.167 61.439 C 244.740 60.878,245.208 60.384,245.208 60.341 C 245.208 60.299,245.803 59.666,246.530 58.934 C 247.256 58.203,248.383 56.928,249.033 56.101 C 249.682 55.275,250.682 54.103,251.255 53.497 C 251.827 52.891,252.348 52.232,252.412 52.031 C 252.476 51.831,252.616 51.667,252.722 51.667 C 252.829 51.667,252.917 51.558,252.917 51.425 C 252.917 51.292,253.440 50.613,254.080 49.915 C 255.827 48.009,255.833 48.001,255.833 47.789 C 255.833 47.681,255.997 47.440,256.198 47.254 C 257.077 46.438,258.125 45.214,258.125 45.003 C 258.125 44.761,258.266 44.572,259.271 43.468 C 260.063 42.597,260.833 41.528,260.833 41.299 C 260.833 41.203,261.161 40.805,261.563 40.417 C 261.964 40.028,262.292 39.541,262.292 39.334 C 262.292 39.127,262.388 38.958,262.507 38.958 C 262.625 38.958,262.779 38.809,262.849 38.626 C 262.919 38.443,263.245 38.000,263.573 37.641 C 263.901 37.282,264.228 36.799,264.301 36.567 C 264.374 36.335,264.748 35.820,265.133 35.423 C 265.518 35.025,265.833 34.538,265.833 34.339 C 265.833 34.141,265.951 33.904,266.094 33.812 C 266.408 33.612,266.803 33.016,267.137 32.240 C 267.272 31.924,267.461 31.667,267.557 31.667 C 267.652 31.667,267.828 31.385,267.948 31.042 C 268.068 30.698,268.250 30.417,268.354 30.417 C 268.457 30.417,268.542 30.291,268.542 30.136 C 268.542 29.982,268.729 29.687,268.958 29.479 C 269.188 29.272,269.375 28.980,269.375 28.831 C 269.375 28.449,270.338 27.074,270.495 27.231 C 270.567 27.303,270.625 27.126,270.625 26.838 C 270.625 26.550,270.813 26.145,271.042 25.938 C 271.271 25.730,271.458 25.392,271.458 25.186 C 271.458 24.981,271.576 24.737,271.719 24.646 C 272.031 24.446,272.397 23.887,272.819 22.969 C 272.991 22.596,273.223 22.292,273.336 22.292 C 273.449 22.292,273.542 22.069,273.542 21.796 C 273.542 21.524,273.692 21.176,273.876 21.024 C 274.060 20.871,274.294 20.555,274.396 20.321 C 274.646 19.750,275.027 19.180,275.469 18.716 C 275.669 18.506,275.833 18.186,275.833 18.006 C 275.833 17.826,275.974 17.538,276.146 17.366 C 276.318 17.194,276.458 16.873,276.458 16.652 C 276.458 16.431,276.557 16.250,276.678 16.250 C 276.798 16.250,276.995 15.969,277.115 15.625 C 277.234 15.281,277.417 15.000,277.520 15.000 C 277.624 15.000,277.708 14.859,277.708 14.687 C 277.708 14.516,277.896 14.187,278.125 13.958 C 278.354 13.729,278.542 13.385,278.542 13.193 C 278.542 13.002,278.685 12.687,278.861 12.493 C 279.036 12.299,279.222 11.921,279.273 11.654 C 279.325 11.386,279.509 11.087,279.684 10.990 C 279.858 10.892,280.000 10.536,280.000 10.198 C 280.000 9.860,280.092 9.583,280.204 9.583 C 280.317 9.583,280.471 9.326,280.546 9.010 C 280.622 8.695,280.858 8.270,281.071 8.065 C 281.284 7.860,281.458 7.426,281.458 7.101 C 281.458 6.775,281.599 6.393,281.771 6.250 C 281.943 6.107,282.083 5.768,282.083 5.495 C 282.083 5.223,282.271 4.812,282.500 4.583 C 282.729 4.354,282.917 3.989,282.917 3.772 C 282.917 3.555,283.057 3.324,283.229 3.258 C 283.413 3.188,283.542 2.875,283.542 2.500 C 283.542 2.125,283.671 1.812,283.854 1.742 C 284.058 1.664,284.167 1.340,284.167 0.811 L 284.167 0.000 142.083 0.000 L -0.001 0.000 0.052 54.844 " stroke="none" fill="#000000" fill-rule="evenodd"></path></g></svg>