<svg id="visual" viewBox="0 0 1100 675" width="1100" height="675" xmlns="http://www.w3.org/2000/svg" xmlns:xlink="http://www.w3.org/1999/xlink" version="1.1"><path d="M0 377L45.8 332.3C91.7 287.7 183.3 198.3 275 187C366.7 175.7 458.3 242.3 550 293C641.7 343.7 733.3 378.3 825 410.5C916.7 442.7 1008.3 472.3 1054.2 487.2L1100 502L1100 676L1054.2 676C1008.3 676 916.7 676 825 676C733.3 676 641.7 676 550 676C458.3 676 366.7 676 275 676C183.3 676 91.7 676 45.8 676L0 676Z" fill="#f7770f"></path><path d="M0 405L45.8 410.2C91.7 415.3 183.3 425.7 275 390.2C366.7 354.7 458.3 273.3 550 284.8C641.7 296.3 733.3 400.7 825 442.7C916.7 484.7 1008.3 464.3 1054.2 454.2L1100 444L1100 676L1054.2 676C1008.3 676 916.7 676 825 676C733.3 676 641.7 676 550 676C458.3 676 366.7 676 275 676C183.3 676 91.7 676 45.8 676L0 676Z" fill="#f98b36"></path><path d="M0 318L45.8 304.5C91.7 291 183.3 264 275 282.7C366.7 301.3 458.3 365.7 550 364C641.7 362.3 733.3 294.7 825 271.5C916.7 248.3 1008.3 269.7 1054.2 280.3L1100 291L1100 676L1054.2 676C1008.3 676 916.7 676 825 676C733.3 676 641.7 676 550 676C458.3 676 366.7 676 275 676C183.3 676 91.7 676 45.8 676L0 676Z" fill="#fb9e54"></path><path d="M0 507L45.8 504C91.7 501 183.3 495 275 513.8C366.7 532.7 458.3 576.3 550 576.2C641.7 576 733.3 532 825 516.7C916.7 501.3 1008.3 514.7 1054.2 521.3L1100 528L1100 676L1054.2 676C1008.3 676 916.7 676 825 676C733.3 676 641.7 676 550 676C458.3 676 366.7 676 275 676C183.3 676 91.7 676 45.8 676L0 676Z" fill="#fcb071"></path><path d="M0 640L45.8 625.3C91.7 610.7 183.3 581.3 275 552.5C366.7 523.7 458.3 495.3 550 499C641.7 502.7 733.3 538.3 825 539.3C916.7 540.3 1008.3 506.7 1054.2 489.8L1100 473L1100 676L1054.2 676C1008.3 676 916.7 676 825 676C733.3 676 641.7 676 550 676C458.3 676 366.7 676 275 676C183.3 676 91.7 676 45.8 676L0 676Z" fill="#fdc18f"></path></svg>