<svg id="visual" viewBox="0 0 900 675" width="900" height="675" xmlns="http://www.w3.org/2000/svg" xmlns:xlink="http://www.w3.org/1999/xlink" version="1.1"><path d="M0 377L37.5 332.3C75 287.7 150 198.3 225 187C300 175.7 375 242.3 450 293C525 343.7 600 378.3 675 410.5C750 442.7 825 472.3 862.5 487.2L900 502L900 676L862.5 676C825 676 750 676 675 676C600 676 525 676 450 676C375 676 300 676 225 676C150 676 75 676 37.5 676L0 676Z" fill="#fa7268"></path><path d="M0 405L37.5 410.2C75 415.3 150 425.7 225 390.2C300 354.7 375 273.3 450 284.8C525 296.3 600 400.7 675 442.7C750 484.7 825 464.3 862.5 454.2L900 444L900 676L862.5 676C825 676 750 676 675 676C600 676 525 676 450 676C375 676 300 676 225 676C150 676 75 676 37.5 676L0 676Z" fill="#ef5f67"></path><path d="M0 318L37.5 304.5C75 291 150 264 225 282.7C300 301.3 375 365.7 450 364C525 362.3 600 294.7 675 271.5C750 248.3 825 269.7 862.5 280.3L900 291L900 676L862.5 676C825 676 750 676 675 676C600 676 525 676 450 676C375 676 300 676 225 676C150 676 75 676 37.5 676L0 676Z" fill="#e34c67"></path><path d="M0 507L37.5 504C75 501 150 495 225 513.8C300 532.7 375 576.3 450 576.2C525 576 600 532 675 516.7C750 501.3 825 514.7 862.5 521.3L900 528L900 676L862.5 676C825 676 750 676 675 676C600 676 525 676 450 676C375 676 300 676 225 676C150 676 75 676 37.5 676L0 676Z" fill="#d53867"></path><path d="M0 640L37.5 625.3C75 610.7 150 581.3 225 552.5C300 523.7 375 495.3 450 499C525 502.7 600 538.3 675 539.3C750 540.3 825 506.7 862.5 489.8L900 473L900 676L862.5 676C825 676 750 676 675 676C600 676 525 676 450 676C375 676 300 676 225 676C150 676 75 676 37.5 676L0 676Z" fill="#c62368"></path></svg>