<?xml version="1.0" standalone="no"?>
<svg viewBox="0 0 200 200" xmlns="http://www.w3.org/2000/svg">
  <path fill="#F2F4F8" d="M37.4,-59.5C47.4,-58.9,53.8,-46.8,62.5,-35C71.1,-23.2,82.1,-11.6,82.4,0.2C82.7,12,72.4,23.9,61.2,31.3C49.9,38.6,37.7,41.4,27.3,39.6C17,37.9,8.5,31.7,1,29.9C-6.5,28.2,-12.9,30.9,-26.1,34.2C-39.2,37.6,-59,41.5,-66.7,35.9C-74.4,30.3,-69.9,15.2,-65.7,2.5C-61.4,-10.2,-57.3,-20.5,-49.7,-26.3C-42.2,-32,-31.1,-33.4,-22.2,-34.7C-13.4,-35.9,-6.7,-37.2,3.5,-43.2C13.7,-49.3,27.3,-60.1,37.4,-59.5Z" transform="translate(100 100)" />
</svg>
